<svg width="417" height="417" viewBox="0 0 417 417" fill="none" xmlns="http://www.w3.org/2000/svg">
<g style="mix-blend-mode:multiply" opacity="0.75" clip-path="url(#clip0_1_1165)">
<g style="mix-blend-mode:multiply">
<path opacity="0.27" d="M391.446 130.988C379.77 152.672 381.438 177.692 373.932 200.21C363.09 235.238 323.058 238.574 291.366 240.242C286.362 240.242 282.192 244.412 277.188 247.748C257.172 262.76 245.496 287.78 219.642 290.282C188.784 293.618 163.764 273.602 145.416 248.582C122.064 214.388 108.72 178.526 73.6922 156.008C50.874 141.847 25.854 135.85 0 138.711V417.834H417V99.5629C406.292 108.049 397.57 118.775 391.446 130.988Z" fill="#EEC6B3"/>
</g>
<path d="M192.254 80.064V135.108H168.068C167.038 135.106 166.052 134.695 165.325 133.967C164.598 133.238 164.19 132.251 164.19 131.222V83.9755C164.186 83.4616 164.285 82.9521 164.48 82.4766C164.675 82.0011 164.962 81.569 165.325 81.2052C165.688 80.8414 166.119 80.5533 166.595 80.3574C167.07 80.1615 167.579 80.0618 168.093 80.064H192.254Z" fill="#1D253D"/>
<path d="M286.304 106.127C283.802 129.479 270.541 135.083 270.541 135.083H192.254V80.064C214.221 75.844 224.688 48.789 222.419 35.2198C222.816 32.4708 222.816 29.679 222.419 26.9299C222.802 25.6631 223.64 24.5829 224.772 23.8976C225.904 23.2123 227.25 22.9704 228.549 23.2186C243.653 25.5788 244.52 56.9205 244.395 67.137C244.393 67.9841 244.714 68.8002 245.292 69.4198C245.869 70.0393 246.661 70.4158 247.506 70.473C253.277 70.865 265.854 72.0076 276.896 74.8932C284.135 76.7864 287.138 78.6796 288.03 82.8246C288.989 87.2614 287.58 94.1336 286.304 106.127Z" fill="#E2B49D"/>
<path d="M192.254 80.064V126.685H168.068C167.039 126.685 166.053 126.276 165.325 125.549C164.598 124.821 164.19 123.835 164.19 122.806V83.9755C164.186 83.4616 164.285 82.9521 164.48 82.4766C164.675 82.0011 164.962 81.569 165.325 81.2052C165.688 80.8414 166.119 80.5533 166.595 80.3574C167.07 80.1615 167.579 80.0618 168.093 80.064H192.254Z" fill="#004FFF"/>
<path d="M288.047 82.8912C287.663 86.7193 286.963 91.5481 286.304 97.7531C283.802 121.105 270.541 126.71 270.541 126.71H192.254V80.064C203.204 77.9623 211.728 69.8641 216.898 60.2982C220.618 53.3926 221.786 45.6114 222.278 37.8802C222.57 33.36 220.81 21.6339 228.566 23.2185C243.67 25.5787 244.537 56.9205 244.412 67.137C244.41 67.9841 244.73 68.8002 245.308 69.4197C245.886 70.0392 246.678 70.4158 247.523 70.473C253.294 70.8649 265.871 72.0075 276.913 74.8932C284.152 76.8531 287.155 78.7462 288.047 82.8912Z" fill="#004FFF"/>
<path d="M256.755 135.108H268.548L262.852 141.33V148.068H254.512V142.23C254.515 140.896 254.8 139.578 255.346 138.361L256.755 135.108Z" fill="#BF6D3E"/>
<path d="M256.422 140.471C257.069 140.155 257.611 139.658 257.982 139.041C258.353 138.424 258.538 137.712 258.513 136.992C258.488 136.272 258.256 135.575 257.843 134.984C257.431 134.394 256.856 133.936 256.188 133.665C255.955 131.363 253.87 129.554 251.593 129.153C253.224 132.93 254.276 136.931 254.712 141.021L256.422 140.471Z" fill="#BF6D3E"/>
<path d="M254.579 130.271C254.945 130.471 255.255 130.76 255.48 131.111C255.706 131.462 255.84 131.864 255.871 132.281C255.938 132.752 256.109 133.202 256.372 133.598C256.731 133.931 257.135 134.212 257.573 134.432C257.971 134.691 258.308 135.034 258.559 135.438C258.81 135.841 258.969 136.296 259.024 136.768C259.056 137.84 258.839 138.904 258.39 139.878C258.265 140.195 257.789 139.945 257.915 139.628C258.345 138.709 258.54 137.697 258.482 136.684C258.386 136.229 258.185 135.801 257.895 135.437C257.606 135.072 257.236 134.78 256.814 134.583C256.447 134.403 256.127 134.141 255.88 133.815C255.673 133.485 255.527 133.121 255.446 132.739C255.262 132.006 255.146 131.071 254.345 130.746C254.003 130.621 254.253 130.146 254.579 130.271Z" fill="#80410E"/>
<path d="M180.411 135.108H168.626L174.323 141.33V148.068H182.663V142.23C182.659 140.896 182.375 139.578 181.829 138.361L180.411 135.108Z" fill="#BF6D3E"/>
<path d="M230.526 196.282C237.563 191.7 243.95 186.19 249.516 179.902C251.391 168.594 252.697 157.198 253.428 145.758C256.989 145.36 260.579 145.29 264.153 145.55C266.812 160.539 267.671 175.793 266.713 190.986C257.256 200.352 247.156 210.785 237.69 220.176L230.526 196.282Z" fill="#407BFF"/>
<path d="M265.679 184.131C266.226 183.363 266.698 182.544 267.089 181.687C267.047 184.789 266.93 187.884 266.713 190.994C257.256 200.352 247.156 210.785 237.69 220.176L236.022 214.63C246.505 205.164 256.872 195.531 265.679 184.131Z" fill="#004FFF"/>
<path d="M254.287 151.079L261.442 151.246C261.784 151.246 261.818 151.788 261.442 151.78L254.287 151.613C253.97 151.604 253.945 151.071 254.287 151.079Z" fill="#1D253D"/>
<path d="M206.54 196.282C199.503 191.7 193.116 186.19 187.55 179.902C185.675 168.594 184.369 157.198 183.639 145.758C180.077 145.36 176.487 145.29 172.913 145.55C170.254 160.539 169.395 175.793 170.353 190.986C179.81 200.343 189.91 210.777 199.368 220.134L206.54 196.282Z" fill="#407BFF"/>
<path d="M199.818 211.969C199.977 213.763 200.102 215.556 200.21 217.349L199.376 220.143C189.919 210.785 179.819 200.352 170.361 190.994C170.086 186.949 169.961 182.913 169.961 178.885C175.14 192.754 186.908 203.363 199.818 211.969Z" fill="#004FFF"/>
<path d="M173.472 151.479L182.946 151.004C183.017 151.004 183.085 151.032 183.135 151.082C183.185 151.132 183.213 151.2 183.213 151.271C183.213 151.342 183.185 151.41 183.135 151.46C183.085 151.51 183.017 151.538 182.946 151.538L173.464 152.022C173.4 152.009 173.343 151.975 173.302 151.925C173.261 151.875 173.239 151.812 173.24 151.747C173.241 151.682 173.265 151.62 173.307 151.571C173.35 151.522 173.408 151.49 173.472 151.479Z" fill="#1D253D"/>
<path d="M195.248 363.082C195.248 364.391 195.248 365.667 195.248 366.893H202.854L203.271 363.082H195.248Z" fill="#001E4A"/>
<path d="M232.878 363.082C232.878 364.391 232.878 365.667 232.878 366.893H240.484L240.909 363.082H232.878Z" fill="#001E4A"/>
<path d="M241.193 259.474C221.06 261.693 218.141 273.21 218.141 273.21L226.273 321.24L230.543 365.225H244.095C248.182 310.248 241.193 259.474 241.193 259.474Z" fill="#004FFF"/>
<path d="M223.554 272.551C223.554 272.551 232.511 266.813 233.562 261.793L197.258 262.985C197.258 262.985 192.204 327.845 192.345 363.065H206.198L223.554 272.551Z" fill="#465A94"/>
<path d="M222.536 277.872L206.198 365.225H192.345C192.237 339.004 195.014 294.244 196.44 274.152C204.851 276.922 213.686 278.181 222.536 277.872Z" fill="#407BFF"/>
<path d="M196.44 274.152C196.924 267.239 197.274 262.985 197.274 262.985L233.578 261.793C232.528 266.797 223.57 272.551 223.57 272.551L222.553 277.872C213.697 278.183 204.857 276.924 196.44 274.152Z" fill="#004FFF"/>
<path d="M230.484 266.88C232.261 265.095 233.82 263.06 234.221 261.125L200.235 259.516C200.235 259.516 199.96 263.169 199.835 264.687C209.86 267.107 220.217 267.848 230.484 266.88Z" fill="#1D253D"/>
<path d="M203.304 366.318L194.405 366.076C191.928 368.679 190.174 371.885 189.318 375.375H205.381C205.062 372.282 204.365 369.24 203.304 366.318Z" fill="#DC9C81"/>
<path d="M189.318 375.375C189.235 375.7 189.143 376.034 189.085 376.367C189.055 376.492 189.055 376.621 189.083 376.746C189.112 376.87 189.168 376.987 189.249 377.086C189.33 377.185 189.432 377.264 189.548 377.317C189.664 377.371 189.791 377.397 189.919 377.393H204.647C204.763 377.394 204.878 377.37 204.984 377.323C205.091 377.277 205.186 377.209 205.265 377.123C205.343 377.038 205.403 376.936 205.44 376.826C205.478 376.716 205.491 376.6 205.481 376.484C205.481 376.117 205.414 375.742 205.381 375.375H189.318Z" fill="#004FFF"/>
<path d="M232.402 366.318L241.293 366.076C243.795 368.653 258.698 371.914 259.566 375.375H230.376C230.674 372.284 231.355 369.241 232.402 366.318Z" fill="#DC9C81"/>
<path d="M259.566 375.375C259.649 375.7 259.733 376.034 259.799 376.367C259.829 376.492 259.829 376.621 259.801 376.746C259.772 376.87 259.716 376.987 259.635 377.086C259.554 377.185 259.452 377.264 259.336 377.317C259.22 377.371 259.093 377.397 258.965 377.393H231.085C230.969 377.394 230.854 377.37 230.747 377.323C230.641 377.277 230.545 377.209 230.467 377.123C230.388 377.038 230.329 376.936 230.291 376.826C230.254 376.716 230.24 376.6 230.251 376.484C230.251 376.117 230.309 375.742 230.351 375.375H259.566Z" fill="#004FFF"/>
<path d="M202.295 324.76C201.194 322.858 200.035 321.015 199.126 319.013C198.247 316.985 197.495 314.905 196.874 312.783C196.855 312.735 196.82 312.696 196.774 312.672C196.728 312.649 196.675 312.644 196.625 312.657C196.575 312.671 196.532 312.702 196.504 312.745C196.476 312.789 196.466 312.841 196.474 312.892C196.92 315.088 197.622 317.223 198.567 319.255C199.424 321.336 200.545 323.298 201.903 325.093C202.087 325.26 202.437 324.993 202.295 324.76Z" fill="#F8BAA6"/>
<path d="M194.556 361.789H203.388C203.73 361.789 203.755 362.323 203.388 362.323H194.581C194.239 362.323 194.214 361.789 194.556 361.789Z" fill="#F8BAA6"/>
<path d="M237.598 202.762C237.505 201.567 237.059 200.426 236.316 199.485C235.574 198.544 234.569 197.844 233.428 197.475C228.086 195.649 222.426 194.939 216.798 195.39C211.625 195.802 206.512 196.78 201.553 198.309C198.309 199.259 196.282 202.153 196.782 205.139C199.773 222.974 200.721 241.091 199.61 259.14C212.954 263.002 226.189 264.144 238.808 259.733C239.183 241.351 238.466 221.177 237.598 202.762Z" fill="#B85E37"/>
<path d="M218.85 200.51C217.391 201.247 216.025 202.154 214.78 203.212C214.246 202.212 213.746 201.186 213.229 200.177L212.395 198.509C212.148 197.937 211.843 197.392 211.486 196.882C211.327 196.691 211.027 196.882 211.085 197.116C211.281 197.695 211.532 198.254 211.836 198.784C212.128 199.359 212.42 199.935 212.67 200.51C213.245 201.645 213.846 202.762 214.38 203.913C214.407 203.956 214.443 203.992 214.485 204.02C214.528 204.047 214.576 204.065 214.627 204.071C214.677 204.077 214.728 204.073 214.776 204.057C214.824 204.041 214.868 204.015 214.905 203.98C216.218 202.862 217.643 201.883 219.159 201.061C219.517 200.852 219.209 200.327 218.85 200.51Z" fill="#D6876A"/>
<path d="M224.104 200.519C224.104 200.027 224.104 199.543 224.104 199.059C224.169 198.59 224.132 198.112 223.996 197.658C223.974 197.627 223.946 197.602 223.912 197.584C223.879 197.567 223.842 197.558 223.804 197.558C223.766 197.558 223.729 197.567 223.696 197.584C223.662 197.602 223.634 197.627 223.612 197.658C223.47 198.091 223.436 198.552 223.512 199.001C223.512 199.509 223.512 200.01 223.512 200.519C223.512 201.353 223.604 202.128 223.67 202.929L221.669 201.828L220.435 201.144C220.046 200.883 219.618 200.686 219.167 200.56C219.132 200.553 219.096 200.557 219.064 200.571C219.032 200.585 219.005 200.61 218.987 200.64C218.97 200.671 218.962 200.706 218.966 200.741C218.97 200.776 218.985 200.809 219.008 200.835C219.345 201.159 219.73 201.426 220.151 201.628L221.369 202.345L223.871 203.771C223.918 203.805 223.974 203.825 224.032 203.828C224.09 203.831 224.148 203.818 224.198 203.788C224.248 203.759 224.289 203.716 224.315 203.664C224.342 203.612 224.352 203.554 224.346 203.496C224.213 202.487 224.146 201.503 224.104 200.519Z" fill="#D6876A"/>
<path d="M219.008 200.794L217.115 202.295L218.058 203.771L217.883 254.095L221.636 256.046L224.83 254.095L220.426 204.055L220.968 202.078L219.008 200.794Z" fill="#DD4F05"/>
<path d="M195.623 208.709C194.981 204.405 196.741 199.751 200.21 198.492C203.028 197.433 205.972 196.746 208.967 196.449C211.311 206.232 220.968 226.223 220.968 226.223C220.968 226.223 228.474 203.346 224.062 195.465C226.89 195.314 232.261 196.115 235.096 197.558C237.757 198.909 239.425 203.288 239.625 206.682C240.859 227.674 244.779 249.491 246.43 270.775C244.379 271.734 241.702 271.759 239.491 271.951C235.897 272.276 232.294 272.443 228.649 272.576C216.973 273.01 205.398 272.635 194.347 268.406C195.99 248.449 198.567 228.566 195.623 208.709Z" fill="#407BFF"/>
<path d="M199.818 211.969C201.486 230.926 199.876 250.217 196.232 269.057C195.615 268.84 194.998 268.623 194.38 268.381C195.973 248.582 198.55 228.825 195.673 209.1C197.041 210.085 198.423 211.041 199.818 211.969Z" fill="#004FFF"/>
<path d="M227.782 213.137L231.752 211.778L232.744 211.436C233.045 211.352 233.338 211.243 233.62 211.11C234.187 210.802 233.97 210.126 233.804 209.626C232.97 206.94 232.036 204.263 231.16 201.578C231.138 201.51 231.143 201.437 231.175 201.373C231.207 201.31 231.263 201.262 231.331 201.24C231.398 201.218 231.472 201.223 231.535 201.256C231.598 201.288 231.646 201.344 231.669 201.411L233.92 208.258C234.095 208.784 234.296 209.317 234.437 209.859C234.566 210.255 234.551 210.683 234.396 211.069C234.291 211.242 234.153 211.392 233.99 211.511C233.827 211.629 233.642 211.715 233.445 211.761L231.777 212.328L227.932 213.646C227.868 213.657 227.801 213.644 227.745 213.61C227.689 213.575 227.648 213.521 227.63 213.458C227.611 213.396 227.616 213.328 227.645 213.269C227.673 213.209 227.722 213.162 227.782 213.137Z" fill="#C87D5D"/>
<path d="M228.124 213.27L232.603 217.916C232.836 218.158 232.478 218.558 232.236 218.308L227.765 213.662C227.524 213.421 227.882 213.02 228.124 213.27Z" fill="#C87D5D"/>
<path d="M222.069 230.651L232.219 217.916C232.436 217.641 232.828 218.008 232.619 218.274L222.47 231.018C222.253 231.277 221.844 230.918 222.069 230.651Z" fill="#C87D5D"/>
<path d="M211.452 214.071L207.332 213.237L206.307 213.037C205.996 212.998 205.689 212.934 205.389 212.845C204.78 212.612 204.905 211.911 204.997 211.394C205.498 208.617 206.006 205.831 206.507 203.054C206.519 202.983 206.502 202.91 206.461 202.852C206.42 202.793 206.357 202.753 206.286 202.741C206.215 202.729 206.142 202.746 206.084 202.787C206.025 202.828 205.985 202.891 205.973 202.962L204.697 210.051C204.597 210.602 204.472 211.16 204.413 211.719C204.329 212.128 204.4 212.553 204.614 212.912C204.875 213.221 205.245 213.418 205.648 213.462L207.366 213.788L211.361 214.555C211.412 214.544 211.459 214.518 211.496 214.48C211.533 214.443 211.558 214.395 211.567 214.343C211.577 214.292 211.572 214.238 211.551 214.19C211.531 214.141 211.496 214.1 211.452 214.071Z" fill="#C87D5D"/>
<path d="M211.135 214.255L207.349 219.475C207.141 219.751 207.558 220.093 207.758 219.817L211.544 214.597C211.744 214.338 211.336 213.979 211.135 214.255Z" fill="#C87D5D"/>
<path d="M219.542 230.618L207.724 219.425C207.474 219.183 207.132 219.6 207.382 219.834L219.209 231.018C219.459 231.268 219.792 230.859 219.542 230.618Z" fill="#C87D5D"/>
<path d="M221.227 227.106C221.611 233.106 221.908 239.102 222.119 245.096C222.331 251.09 222.461 257.092 222.511 263.102C222.511 266.477 222.511 269.857 222.511 273.243C222.511 273.585 221.977 273.61 221.977 273.243C222.028 267.239 221.994 261.234 221.877 255.229C221.761 249.224 221.558 243.225 221.269 237.231C221.102 233.851 220.913 230.476 220.701 227.106C220.713 227.045 220.745 226.989 220.793 226.949C220.841 226.909 220.902 226.887 220.964 226.887C221.027 226.887 221.087 226.909 221.135 226.949C221.184 226.989 221.216 227.045 221.227 227.106Z" fill="#C87D5D"/>
<path d="M230.518 254.37C233.673 255.252 237.027 255.115 240.1 253.978C240.426 253.861 240.592 254.37 240.267 254.487C237.1 255.655 233.644 255.795 230.393 254.887C230.067 254.779 230.184 254.262 230.518 254.37Z" fill="#C87D5D"/>
<path d="M201.728 255.054C204.886 255.939 208.242 255.804 211.319 254.67C211.644 254.545 211.811 255.054 211.486 255.179C208.317 256.339 204.864 256.479 201.611 255.579C201.286 255.488 201.403 254.962 201.728 255.054Z" fill="#C87D5D"/>
<path d="M228.516 178.601C229.457 175.315 229.227 171.804 227.866 168.668C228.033 167.878 227.909 167.055 227.515 166.35C227.111 165.677 226.535 165.125 225.847 164.748C225.397 164.479 224.897 164.301 224.378 164.225C223.858 164.149 223.329 164.177 222.82 164.306C222.312 164.446 221.859 164.737 221.521 165.141C221.183 165.545 220.975 166.042 220.927 166.566C220.211 166.077 219.445 165.666 218.641 165.34C217.787 165.012 216.853 164.953 215.964 165.174C215.525 165.289 215.121 165.511 214.789 165.821C214.457 166.131 214.207 166.519 214.063 166.95C213.937 167.386 213.966 167.852 214.144 168.27C214.321 168.688 214.637 169.031 215.039 169.244C214.619 168.858 214.097 168.601 213.535 168.504C212.973 168.406 212.395 168.472 211.869 168.693C210.916 169.166 210.177 169.983 209.801 170.978C209.45 171.745 209.328 172.596 209.451 173.43C209.517 173.844 209.68 174.236 209.927 174.575C210.173 174.914 210.496 175.191 210.869 175.382C209.434 176.099 208.967 177.884 209.267 179.418C209.661 180.991 210.467 182.431 211.603 183.588C212.727 184.736 213.704 186.019 214.513 187.408L228.516 178.601Z" fill="#7A2923"/>
<path d="M228.082 178.926C228.922 175.761 228.72 172.41 227.507 169.369C227.655 168.612 227.544 167.827 227.19 167.142C226.844 166.502 226.331 165.969 225.705 165.599C225.312 165.342 224.868 165.172 224.404 165.098C223.94 165.025 223.465 165.051 223.012 165.174C222.552 165.335 222.149 165.626 221.853 166.013C221.557 166.4 221.38 166.865 221.344 167.35C220.713 166.878 220.03 166.481 219.309 166.166C218.555 165.853 217.72 165.797 216.932 166.008C216.538 166.127 216.18 166.342 215.889 166.633C215.598 166.924 215.383 167.282 215.264 167.676C215.144 168.085 215.16 168.522 215.31 168.92C215.461 169.319 215.737 169.658 216.098 169.886C215.739 169.518 215.277 169.27 214.772 169.175C214.268 169.079 213.747 169.141 213.279 169.352C212.412 169.831 211.755 170.616 211.436 171.554C211.123 172.295 211.016 173.108 211.127 173.906C211.179 174.295 211.32 174.667 211.538 174.994C211.757 175.321 212.047 175.593 212.386 175.79C211.11 176.483 210.718 178.159 210.96 179.677C211.313 181.159 212.026 182.532 213.037 183.672C214.047 184.786 214.918 186.018 215.631 187.341L228.082 178.926Z" fill="#3B1411"/>
<path d="M213.271 183.055C213.604 187.388 213.504 191.744 212.97 196.057C212.914 196.484 212.976 196.918 213.149 197.312C213.323 197.706 213.601 198.045 213.954 198.292C215.959 199.702 218.424 200.298 220.852 199.96C221.434 199.867 221.959 199.558 222.323 199.094C222.686 198.63 222.861 198.045 222.811 197.458C222.583 194.684 222.505 191.9 222.578 189.118C220.16 186.202 216.915 184.088 213.271 183.055Z" fill="#BF6D3E"/>
<path d="M222.578 189.068C220.153 186.17 216.909 184.074 213.271 183.055C213.354 184.189 213.412 185.331 213.446 186.474C214.095 188.633 215.284 190.591 216.899 192.164C218.514 193.736 220.503 194.872 222.678 195.465C222.561 193.355 222.52 191.278 222.578 189.068Z" fill="#80410E"/>
<path d="M228.591 175.974C229.425 182.012 228.132 192.37 223.587 192.837C218.216 193.388 214.93 188.617 213.729 184.222C213.729 184.297 213.237 184.581 212.712 184.548C212.104 184.392 211.578 184.014 211.236 183.488C210.685 182.654 210.126 181.395 210.718 180.461C211.427 179.335 212.987 179.102 213.646 180.461C213.715 178.292 214.202 176.157 215.08 174.173C215.2 173.839 215.392 173.535 215.643 173.284C215.894 173.033 216.197 172.841 216.531 172.721C219.787 171.644 223.292 171.572 226.589 172.513C226.976 172.634 227.326 172.85 227.607 173.142C227.888 173.433 228.092 173.79 228.199 174.181C228.369 174.769 228.5 175.368 228.591 175.974Z" fill="#BF6D3E"/>
<path d="M222.119 176.374C221.152 175.14 218.475 175.991 217.482 176.783C217.307 176.925 217.09 177.117 217.107 177.367C217.112 177.432 217.135 177.495 217.176 177.547C217.216 177.599 217.27 177.638 217.332 177.659C217.632 177.742 217.916 177.492 218.166 177.358C218.497 177.182 218.85 177.053 219.217 176.975C219.67 176.868 220.139 176.84 220.601 176.891C221.033 177.013 221.479 177.077 221.927 177.083C222.286 177.025 222.294 176.591 222.119 176.374Z" fill="#3B1411"/>
<path d="M220.701 178.534C220.674 178.462 220.631 178.397 220.576 178.343C220.521 178.291 220.456 178.251 220.384 178.226C220.314 178.185 220.232 178.167 220.151 178.176H219.993C219.897 178.207 219.809 178.258 219.734 178.326L219.642 178.451C219.586 178.541 219.557 178.645 219.559 178.751V178.81C219.558 178.89 219.576 178.97 219.609 179.043C219.637 179.115 219.68 179.18 219.734 179.235C219.789 179.289 219.854 179.332 219.926 179.36C219.996 179.393 220.073 179.41 220.151 179.41H220.309C220.41 179.385 220.503 179.333 220.576 179.26L220.668 179.135C220.721 179.043 220.749 178.94 220.751 178.835V178.776C220.753 178.693 220.736 178.61 220.701 178.534Z" fill="#3B1411"/>
<path d="M227.198 178.91C227.17 178.838 227.128 178.773 227.073 178.718C227.018 178.663 226.953 178.621 226.881 178.593C226.814 178.551 226.735 178.533 226.656 178.543H226.498C226.4 178.574 226.311 178.628 226.239 178.701L226.147 178.818C226.091 178.908 226.062 179.012 226.064 179.118V179.185C226.055 179.263 226.073 179.343 226.114 179.41C226.142 179.482 226.185 179.547 226.239 179.602C226.294 179.656 226.359 179.699 226.431 179.727C226.501 179.761 226.578 179.778 226.656 179.777H226.815C226.913 179.752 227.003 179.7 227.073 179.627L227.173 179.51C227.222 179.417 227.247 179.314 227.248 179.21V179.143C227.26 179.062 227.242 178.979 227.198 178.91Z" fill="#3B1411"/>
<path d="M228.374 177.233C228.244 177.017 228.07 176.831 227.863 176.688C227.656 176.544 227.421 176.446 227.173 176.399C226.711 176.279 226.226 176.279 225.764 176.399C225.661 176.43 225.573 176.497 225.515 176.587C225.456 176.677 225.432 176.785 225.447 176.891C225.497 177.25 225.806 177.258 226.089 177.267C226.469 177.257 226.848 177.328 227.198 177.475C227.44 177.575 228.7 178.201 228.449 177.408C228.435 177.346 228.409 177.287 228.374 177.233Z" fill="#3B1411"/>
<path d="M222.828 189.068C222.637 189.039 222.443 189.039 222.253 189.068C222.083 189.077 221.913 189.077 221.744 189.068C221.567 189.04 221.392 189.004 221.219 188.959C221.038 188.888 220.846 188.848 220.651 188.843C220.608 188.847 220.566 188.862 220.531 188.888C220.496 188.914 220.468 188.948 220.451 188.989C220.434 189.029 220.428 189.073 220.434 189.116C220.44 189.16 220.457 189.2 220.485 189.235C220.633 189.388 220.825 189.493 221.035 189.535C221.222 189.602 221.414 189.649 221.611 189.677C221.817 189.712 222.026 189.732 222.236 189.735C222.462 189.762 222.691 189.733 222.903 189.652C222.963 189.624 223.012 189.578 223.044 189.521C223.075 189.463 223.088 189.397 223.08 189.332C223.071 189.267 223.042 189.206 222.997 189.159C222.952 189.111 222.893 189.079 222.828 189.068Z" fill="#804E26"/>
<path d="M213.145 182.721C213.097 182.738 213.045 182.745 212.994 182.741C212.942 182.738 212.892 182.724 212.846 182.7C212.8 182.677 212.76 182.645 212.726 182.605C212.693 182.566 212.668 182.52 212.653 182.471C212.647 182.418 212.653 182.364 212.67 182.314C212.688 182.263 212.716 182.217 212.753 182.179C212.786 182.14 212.827 182.107 212.873 182.084C212.919 182.062 212.969 182.048 213.02 182.045C213.056 182.044 213.091 182.035 213.123 182.018C213.155 182.001 213.183 181.978 213.204 181.949C213.226 181.92 213.241 181.887 213.248 181.852C213.255 181.816 213.254 181.78 213.245 181.745C213.189 181.409 213.016 181.104 212.756 180.883C212.497 180.662 212.168 180.539 211.828 180.536C211.667 180.549 211.513 180.603 211.38 180.694C211.246 180.784 211.139 180.908 211.069 181.053C211.009 181.195 210.995 181.352 211.027 181.503C211.027 181.587 211.16 181.812 211.286 181.695C211.411 181.578 211.336 181.537 211.361 181.453C211.382 181.36 211.422 181.272 211.477 181.195C211.53 181.12 211.602 181.061 211.686 181.026C211.77 180.991 211.863 180.98 211.953 180.995C212.126 181.022 212.288 181.098 212.421 181.213C212.553 181.328 212.651 181.478 212.703 181.645C212.533 181.719 212.395 181.851 212.314 182.018C212.233 182.185 212.214 182.375 212.261 182.554C212.325 182.756 212.463 182.926 212.647 183.029C212.832 183.133 213.048 183.163 213.254 183.113C213.504 183.038 213.396 182.646 213.145 182.721Z" fill="#804E26"/>
<path d="M225.705 181.962C225.412 181.726 225.103 181.512 224.78 181.32C224.624 181.226 224.499 181.088 224.422 180.923C224.345 180.758 224.318 180.574 224.346 180.394C224.346 180.119 223.996 180.086 223.862 180.269C223.462 180.828 224.012 181.537 224.463 181.862C224.755 182.032 225.034 182.224 225.297 182.437C225.614 182.76 225.805 183.185 225.836 183.637C225.866 184.088 225.734 184.535 225.464 184.898C225.054 185.349 224.499 185.644 223.896 185.732C223.853 185.741 223.814 185.764 223.786 185.799C223.759 185.833 223.744 185.875 223.744 185.919C223.744 185.963 223.759 186.006 223.786 186.04C223.814 186.074 223.853 186.098 223.896 186.107C224.22 186.167 224.554 186.147 224.869 186.05C225.184 185.953 225.471 185.781 225.705 185.548C225.956 185.324 226.156 185.049 226.291 184.741C226.426 184.433 226.494 184.1 226.489 183.763C226.487 183.426 226.416 183.092 226.282 182.783C226.147 182.473 225.951 182.194 225.705 181.962Z" fill="#80410E"/>
<path d="M223.67 187.842C222.733 188.119 221.731 188.087 220.812 187.753C219.893 187.418 219.106 186.797 218.566 185.982C218.375 185.698 218.825 185.407 219.017 185.69C219.486 186.413 220.176 186.966 220.984 187.267C221.792 187.567 222.676 187.599 223.504 187.358C223.561 187.356 223.618 187.372 223.665 187.404C223.713 187.436 223.749 187.483 223.768 187.538C223.786 187.592 223.787 187.651 223.769 187.706C223.752 187.761 223.717 187.808 223.67 187.842Z" fill="#3B1411"/>
<path d="M239.725 205.998C240.142 214.004 240.868 221.983 241.902 229.934C242.191 232.158 242.508 234.382 242.852 236.606C242.903 236.948 242.369 236.964 242.319 236.606C241.101 228.683 240.198 220.721 239.608 212.72C239.447 210.496 239.308 208.255 239.191 205.998C239.191 205.927 239.219 205.859 239.269 205.809C239.319 205.759 239.387 205.731 239.458 205.731C239.529 205.731 239.597 205.759 239.647 205.809C239.697 205.859 239.725 205.927 239.725 205.998Z" fill="#B85E37"/>
<path d="M180.745 140.471C180.097 140.155 179.555 139.658 179.184 139.041C178.813 138.424 178.628 137.712 178.653 136.992C178.678 136.272 178.91 135.575 179.323 134.984C179.736 134.394 180.311 133.936 180.978 133.665C181.212 131.363 183.297 129.554 185.573 129.153C183.938 132.928 182.886 136.93 182.454 141.021L180.745 140.471Z" fill="#BF6D3E"/>
<path d="M182.588 130.271C181.754 130.579 181.478 131.488 181.295 132.281C181.228 132.752 181.057 133.202 180.795 133.598C180.435 133.931 180.031 134.212 179.594 134.432C179.195 134.692 178.857 135.035 178.605 135.438C178.353 135.842 178.192 136.296 178.134 136.768C178.109 137.84 178.329 138.904 178.776 139.878C178.901 140.195 179.368 139.945 179.252 139.628C178.821 138.709 178.626 137.697 178.685 136.684C178.781 136.229 178.981 135.801 179.271 135.437C179.56 135.072 179.931 134.78 180.353 134.583C180.718 134.401 181.038 134.139 181.287 133.815C181.489 133.483 181.636 133.119 181.72 132.739C181.895 132.006 182.012 131.071 182.821 130.746C183.163 130.621 182.913 130.146 182.588 130.271Z" fill="#80410E"/>
<path d="M316.561 176.208C318.476 176.784 320.192 177.882 321.518 179.378C322.844 180.875 323.726 182.711 324.067 184.681C324.111 185.603 324.353 186.505 324.776 187.325C325.327 188.159 326.369 188.626 326.586 189.577C326.803 190.527 325.977 191.712 326.461 192.637C326.945 193.563 328.471 193.571 328.963 194.522C329.455 195.473 328.304 196.874 328.78 197.95C329.255 199.026 330.589 198.901 331.507 199.451C331.912 199.727 332.241 200.101 332.463 200.539C332.685 200.976 332.792 201.463 332.774 201.953C332.719 202.942 332.433 203.905 331.94 204.764C329.305 209.976 323.942 213.529 318.213 214.697C312.483 215.864 306.47 214.838 301.082 212.578C299.76 212.127 298.575 211.346 297.638 210.31C297.187 209.779 296.913 209.121 296.854 208.427C296.796 207.733 296.956 207.038 297.313 206.44C297.677 206.07 298.004 205.665 298.288 205.231C299.072 203.563 296.62 201.895 296.962 200.068C297.154 199.092 298.113 198.492 298.922 197.925C299.731 197.358 300.59 196.482 300.365 195.506C300.265 195.031 299.915 194.672 299.798 194.155C299.506 192.913 300.799 191.962 301.616 190.986C303.076 189.251 303.159 186.816 303.443 184.548C303.653 183.086 304.176 181.687 304.978 180.447C305.779 179.207 306.839 178.155 308.085 177.363C309.331 176.57 310.734 176.057 312.197 175.858C313.66 175.658 315.149 175.778 316.561 176.208Z" fill="#96432A"/>
<path d="M316.461 178.418C318.271 178.96 319.893 179.995 321.146 181.408C322.4 182.821 323.235 184.555 323.559 186.416C323.591 187.289 323.819 188.144 324.226 188.918C324.743 189.685 325.727 190.144 325.936 191.044C326.144 191.945 325.36 193.063 325.819 193.93C326.278 194.797 327.712 194.814 328.154 195.706C328.596 196.599 327.529 197.933 327.979 198.942C328.429 199.952 329.689 199.843 330.556 200.36C330.939 200.625 331.25 200.983 331.458 201.4C331.667 201.817 331.767 202.28 331.749 202.745C331.694 203.677 331.429 204.584 330.973 205.398C328.471 210.318 323.467 213.662 318.029 214.772C312.592 215.881 306.945 214.897 301.866 212.77C300.622 212.339 299.507 211.602 298.622 210.627C298.189 210.131 297.925 209.511 297.87 208.855C297.814 208.199 297.97 207.543 298.313 206.982C298.656 206.629 298.964 206.244 299.231 205.831C299.973 204.263 297.63 202.662 297.98 200.961C298.163 200.043 299.064 199.484 299.831 198.942C300.599 198.4 301.391 197.583 301.191 196.666C301.091 196.207 300.765 195.832 300.657 195.39C300.382 194.222 301.599 193.321 302.375 192.404C303.751 190.736 303.826 188.442 304.093 186.324C304.286 184.942 304.776 183.619 305.529 182.445C306.282 181.271 307.281 180.274 308.456 179.522C309.632 178.771 310.956 178.283 312.338 178.093C313.72 177.902 315.126 178.013 316.461 178.418Z" fill="#6C301E"/>
<path d="M352.34 191.528C352.326 191.188 352.226 190.856 352.049 190.565C351.873 190.273 351.626 190.031 351.331 189.86C350.736 189.52 350.082 189.297 349.404 189.201C347.434 188.833 345.437 188.635 343.433 188.609C342.931 188.607 342.444 188.78 342.056 189.098C341.668 189.417 341.403 189.86 341.306 190.352C341.19 190.857 341.112 191.37 341.073 191.887C339.713 192.821 339.772 194.931 339.997 196.557C336.836 199.351 331.657 203.321 327.562 204.355C323.467 205.389 319.097 207.099 317.128 210.835C315.761 213.421 315.827 216.506 315.953 219.434C316.044 221.56 316.261 223.971 319.063 224.671C319.951 224.863 320.87 224.863 321.757 224.671C327.487 223.562 331.148 218.6 336.127 215.606C340.889 212.745 345.743 209.684 348.937 205.139C352.131 200.594 355.376 196.173 352.34 191.528Z" fill="#FF941E"/>
<path d="M352.84 198.709C353.386 197.571 353.626 196.311 353.538 195.052C353.451 193.794 353.038 192.579 352.34 191.528C352.326 191.188 352.226 190.856 352.049 190.565C351.873 190.273 351.626 190.031 351.331 189.86C350.736 189.52 350.082 189.297 349.404 189.201C347.434 188.833 345.437 188.635 343.433 188.609C342.931 188.607 342.444 188.78 342.056 189.098C341.668 189.417 341.403 189.86 341.306 190.352C341.19 190.857 341.112 191.37 341.073 191.887C339.713 192.821 339.772 194.931 339.997 196.557C336.836 199.351 331.657 203.321 327.562 204.355C323.467 205.389 319.097 207.099 317.128 210.835C315.761 213.421 315.827 216.506 315.953 219.434C315.953 219.909 316.003 220.401 316.061 220.876C329.522 216.415 343.258 209.426 352.84 198.709Z" fill="#407BFF"/>
<path d="M316.086 220.86C316.295 222.528 316.92 224.112 319.088 224.655C319.976 224.847 320.895 224.847 321.782 224.655C327.512 223.545 331.173 218.583 336.152 215.589C340.914 212.728 345.768 209.668 348.962 205.122C350.497 203.13 351.806 200.973 352.865 198.692C343.258 209.426 329.522 216.415 316.086 220.86Z" fill="#004FFF"/>
<path d="M342.357 171.103L341.865 189.835C341.845 190.502 342.081 191.152 342.525 191.651C342.968 192.15 343.585 192.461 344.25 192.521C345.631 192.622 347.014 192.36 348.262 191.762C348.761 191.516 349.168 191.117 349.425 190.624C349.681 190.13 349.774 189.567 349.688 189.018L346.944 170.762C345.407 170.659 343.862 170.774 342.357 171.103Z" fill="#FFC9B9"/>
<path d="M346.26 200.56C345.189 200.39 344.162 200.008 343.241 199.435C342.32 198.862 341.523 198.11 340.898 197.224C340.697 196.941 340.305 197.308 340.506 197.583C341.181 198.518 342.036 199.308 343.022 199.907C344.007 200.505 345.103 200.901 346.243 201.069C346.577 201.144 346.602 200.61 346.26 200.56Z" fill="#A86114"/>
<path d="M347.653 193.997C346.024 194.006 344.424 193.57 343.024 192.737C342.724 192.562 342.44 193.013 342.732 193.188C344.215 194.072 345.91 194.538 347.636 194.539C347.978 194.53 348.003 193.997 347.653 193.997Z" fill="#A86114"/>
<path d="M314.51 202.579C310.906 201.623 307.091 201.84 303.618 203.196C302.008 203.83 300.282 205.064 300.34 206.79C300.398 208.291 301.791 209.367 303.109 210.076C308.054 212.721 313.787 213.494 319.255 212.253C321.891 211.644 324.509 209.467 322.149 206.907C320.043 204.797 317.402 203.301 314.51 202.579Z" fill="#BD6C43"/>
<path d="M303.017 209.1C299.198 209.709 296.103 212.82 293.843 216.24C291.583 219.659 289.932 223.504 287.471 226.74C285.445 229.392 282.918 231.585 281.108 234.412C279.298 237.24 278.306 241.084 279.774 244.137C281.175 247.047 284.427 248.39 287.446 248.432C289.648 248.432 292 247.815 293.426 246.005C294.464 244.552 294.966 242.783 294.844 241.001C294.844 240.642 294.802 240.284 294.752 239.925C294.638 238.924 294.75 237.911 295.081 236.959C295.412 236.008 295.952 235.143 296.662 234.429C297.092 233.984 297.488 233.507 297.846 233.003C300.348 229.55 302.617 225.864 303.801 221.694C304.985 217.524 305.069 212.862 303.017 209.1Z" fill="#FF941E"/>
<path d="M303.476 222.795C303.593 222.428 303.718 222.077 303.818 221.711C305.011 217.541 305.069 212.862 302.984 209.1C299.164 209.709 296.07 212.82 293.81 216.24C291.55 219.659 289.898 223.504 287.438 226.74C285.411 229.392 282.884 231.585 281.075 234.412C279.265 237.24 278.272 241.084 279.74 244.137C281.141 247.047 284.394 248.39 287.413 248.432C289.615 248.432 291.967 247.815 293.393 246.005C294.431 244.552 294.932 242.783 294.811 241.001C294.811 240.642 294.769 240.284 294.719 239.925C294.719 239.85 294.719 239.767 294.719 239.683C293.987 238.105 293.092 236.607 292.05 235.213C296.491 231.704 300.348 227.512 303.476 222.795Z" fill="#407BFF"/>
<path d="M292.084 235.23C293.126 236.623 294.02 238.121 294.752 239.7C294.678 238.737 294.811 237.77 295.144 236.863C295.476 235.956 296 235.132 296.679 234.446C297.109 234.001 297.505 233.524 297.863 233.02C300.228 229.907 302.12 226.461 303.476 222.795C300.359 227.515 296.514 231.712 292.084 235.23Z" fill="#004FFF"/>
<path d="M319.522 269.123C321.582 266.621 323.3 264.061 323.609 262.176L296.087 257.089C295.253 259.332 293.935 261.609 293.276 263.911C301.541 267.022 310.815 269.232 319.522 269.123Z" fill="#004FFF"/>
<path d="M315.544 370.296L321.257 370.137C322.85 371.805 332.449 373.882 333 376.109H314.218C314.416 374.124 314.862 372.171 315.544 370.296Z" fill="white"/>
<path d="M333 376.134C333.058 376.351 333.108 376.559 333.15 376.776C333.167 376.855 333.167 376.937 333.148 377.016C333.13 377.094 333.094 377.168 333.044 377.231C332.994 377.294 332.93 377.345 332.857 377.381C332.785 377.416 332.705 377.434 332.624 377.435H314.693C314.618 377.435 314.544 377.42 314.476 377.39C314.407 377.36 314.345 377.317 314.294 377.262C314.243 377.207 314.204 377.142 314.18 377.072C314.155 377.001 314.145 376.926 314.151 376.851C314.151 376.609 314.193 376.376 314.218 376.134H333Z" fill="#465A94"/>
<path d="M329.538 260.391C321.24 263.494 317.395 262.285 308.688 262.176C307.93 267.088 310.965 277.572 310.965 277.572L311.324 285.245H332.583C332.507 276.546 331.673 267.814 329.538 260.391Z" fill="#004FFF"/>
<path d="M311.332 285.228L311.574 288.881L332.366 289.114C332.554 287.828 332.629 286.528 332.591 285.228H311.332Z" fill="#407BFF"/>
<path d="M306.587 370.296L300.874 370.137C299.281 371.805 296.645 373.882 296.087 376.109H307.913C307.714 374.124 307.269 372.171 306.587 370.296Z" fill="white"/>
<path d="M296.07 376.134C296.02 376.351 295.962 376.559 295.92 376.776C295.904 376.856 295.906 376.938 295.925 377.016C295.944 377.095 295.981 377.168 296.032 377.231C296.083 377.294 296.147 377.345 296.22 377.38C296.293 377.415 296.373 377.434 296.454 377.435H307.421C307.496 377.435 307.57 377.42 307.638 377.39C307.707 377.36 307.769 377.317 307.82 377.262C307.871 377.207 307.91 377.142 307.934 377.072C307.959 377.001 307.969 376.926 307.963 376.851C307.963 376.609 307.963 376.376 307.896 376.134H296.07Z" fill="#465A94"/>
<path d="M311.341 277.572C314.246 274.934 316.979 272.112 319.522 269.123C310.815 269.232 301.541 267.022 293.243 263.911C291.309 270.861 290.211 278.017 289.974 285.228H310.99L311.341 277.572Z" fill="#407BFF"/>
<path d="M289.973 285.228C289.832 286.52 289.832 287.823 289.973 289.114H310.974V285.228H289.973Z" fill="#004FFF"/>
<path d="M327.295 241.593C327.337 231.402 328.404 223.12 328.813 212.929C328.863 211.803 328.513 210.527 327.537 210.035C312.959 202.587 302.192 208.625 299.823 210.343C299.227 210.783 298.784 211.398 298.556 212.103C298.327 212.807 298.324 213.565 298.547 214.271C301.191 222.728 300.974 230.559 299.564 239.291C298.455 246.13 291.099 254.162 292.951 262.985C304.685 268.239 318.746 267.722 331.615 265.27C335.026 259.157 327.278 247.164 327.295 241.593Z" fill="#407BFF"/>
<path d="M310.04 193.721C310.577 197.961 310.819 202.233 310.765 206.507C310.75 206.903 310.816 207.299 310.96 207.669C311.103 208.039 311.321 208.376 311.599 208.658C312.213 209.26 312.971 209.693 313.801 209.917C314.63 210.14 315.503 210.146 316.336 209.934C317.17 209.701 317.621 208.567 317.462 207.374C317.112 204.63 316.87 202.02 316.712 199.176C315.156 196.666 312.808 194.747 310.04 193.721Z" fill="#FFC9B9"/>
<path d="M316.695 199.176C315.14 196.666 312.792 194.747 310.023 193.721C310.165 194.831 310.281 195.948 310.381 197.057C312.1 200.477 314.551 203.88 317.204 205.397C316.995 203.387 316.82 201.353 316.695 199.176Z" fill="#FFAB90"/>
<path d="M326.986 263.811C316.899 266.718 306.143 266.3 296.312 262.618C295.995 262.493 295.828 263.01 296.153 263.127C299.981 264.56 303.974 265.507 308.038 265.946C312.124 266.397 316.251 266.338 320.323 265.771C322.615 265.453 324.881 264.971 327.103 264.328C327.428 264.236 327.312 263.711 326.986 263.811Z" fill="#A86114"/>
<path d="M321.407 185.807C322.891 192.387 321.182 200.052 319.447 200.318C313.692 201.211 309.856 195.832 309.823 195.765C309.432 196.075 308.975 196.291 308.488 196.399C307.868 196.388 307.273 196.147 306.82 195.723C306.111 195.073 305.277 193.98 305.628 192.946C305.74 192.636 305.928 192.36 306.175 192.142C306.422 191.924 306.72 191.772 307.041 191.699C307.362 191.625 307.697 191.634 308.014 191.724C308.331 191.814 308.62 191.981 308.855 192.212C310.607 188.809 309.089 187.041 309.022 184.573C311.952 182.36 315.598 181.314 319.255 181.637C319.872 181.687 321.265 185.198 321.407 185.807Z" fill="#FFC9B9"/>
<path d="M314.743 188.759C314.703 188.695 314.645 188.643 314.577 188.609C314.515 188.565 314.443 188.539 314.368 188.534C314.291 188.517 314.211 188.517 314.134 188.534L313.993 188.592C313.902 188.639 313.826 188.712 313.776 188.801L313.709 188.934C313.688 189.036 313.688 189.141 313.709 189.243V189.301C313.723 189.378 313.758 189.45 313.809 189.51C313.852 189.575 313.909 189.629 313.976 189.668C314.038 189.71 314.11 189.733 314.185 189.735C314.26 189.76 314.342 189.76 314.418 189.735L314.568 189.677C314.655 189.627 314.727 189.555 314.777 189.468L314.843 189.335C314.868 189.233 314.868 189.127 314.843 189.026V188.968C314.829 188.891 314.795 188.819 314.743 188.759Z" fill="#3B1411"/>
<path d="M320.364 187.767C320.325 187.702 320.27 187.648 320.206 187.608C320.141 187.566 320.066 187.543 319.989 187.542C319.916 187.517 319.837 187.517 319.764 187.542L319.614 187.6C319.524 187.649 319.45 187.721 319.397 187.808L319.339 187.942C319.31 188.043 319.31 188.15 319.339 188.25V188.309C319.353 188.386 319.387 188.458 319.439 188.517C319.478 188.582 319.533 188.636 319.597 188.676C319.734 188.742 319.888 188.765 320.039 188.742L320.189 188.684C320.279 188.635 320.354 188.563 320.406 188.476L320.465 188.342C320.493 188.241 320.493 188.134 320.465 188.034V187.975C320.45 187.898 320.416 187.826 320.364 187.767Z" fill="#3B1411"/>
<path d="M308.48 194.522C308.438 194.549 308.39 194.568 308.34 194.576C308.291 194.584 308.24 194.583 308.191 194.571C308.142 194.559 308.095 194.538 308.055 194.508C308.014 194.478 307.98 194.44 307.955 194.397C307.93 194.351 307.918 194.299 307.918 194.247C307.918 194.195 307.93 194.143 307.955 194.097C307.973 194.05 308.003 194.009 308.04 193.975C308.078 193.942 308.123 193.918 308.171 193.905C308.207 193.897 308.24 193.88 308.267 193.857C308.295 193.834 308.317 193.805 308.332 193.771C308.346 193.738 308.353 193.702 308.351 193.666C308.349 193.63 308.339 193.595 308.321 193.563C308.188 193.248 307.947 192.991 307.642 192.838C307.336 192.685 306.985 192.646 306.653 192.729C306.503 192.779 306.368 192.867 306.262 192.986C306.157 193.105 306.085 193.249 306.053 193.405C306.024 193.552 306.048 193.706 306.12 193.838C306.161 193.913 306.32 194.105 306.412 193.963C306.503 193.822 306.412 193.797 306.412 193.713C306.413 193.619 306.43 193.526 306.462 193.438C306.498 193.355 306.555 193.283 306.629 193.23C306.702 193.177 306.789 193.145 306.879 193.138C307.046 193.13 307.211 193.167 307.358 193.247C307.505 193.326 307.628 193.444 307.713 193.588C307.568 193.698 307.467 193.855 307.427 194.032C307.387 194.209 307.412 194.395 307.496 194.555C307.605 194.733 307.777 194.864 307.978 194.921C308.179 194.978 308.393 194.958 308.58 194.864C308.905 194.739 308.705 194.38 308.48 194.522Z" fill="#FFAB90"/>
<path d="M315.569 185.298C314.359 185.413 313.204 185.86 312.233 186.591C311.958 186.799 312.316 187.2 312.592 186.991C313.489 186.324 314.555 185.92 315.669 185.823C315.704 185.816 315.736 185.802 315.765 185.783C315.795 185.763 315.82 185.738 315.839 185.708C315.858 185.679 315.872 185.646 315.878 185.611C315.885 185.577 315.885 185.541 315.878 185.507C315.87 185.472 315.857 185.439 315.837 185.41C315.817 185.381 315.792 185.356 315.762 185.337C315.733 185.317 315.7 185.304 315.665 185.297C315.631 185.291 315.595 185.291 315.561 185.298H315.569Z" fill="#6C301E"/>
<path d="M320.998 185.432C320.709 185.159 320.359 184.96 319.978 184.85C319.597 184.74 319.195 184.722 318.805 184.798C318.735 184.811 318.674 184.851 318.634 184.91C318.594 184.969 318.579 185.041 318.592 185.11C318.605 185.18 318.646 185.242 318.705 185.282C318.763 185.321 318.835 185.336 318.905 185.323H319.155H319.347H319.597H319.739H319.806L320.031 185.406H320.139H320.198L320.398 185.54L320.498 185.615V185.657C320.55 185.705 320.619 185.731 320.69 185.731C320.761 185.731 320.829 185.705 320.882 185.657C320.918 185.631 320.947 185.598 320.967 185.558C320.988 185.519 320.998 185.476 320.998 185.432Z" fill="#6C301E"/>
<path d="M319.063 196.982L317.312 197.233C317.243 197.249 317.183 197.29 317.144 197.349C317.106 197.408 317.091 197.48 317.104 197.55C317.11 197.584 317.124 197.617 317.144 197.646C317.164 197.675 317.189 197.7 317.218 197.72C317.248 197.739 317.281 197.753 317.316 197.759C317.35 197.766 317.386 197.765 317.42 197.758L319.172 197.508C319.241 197.492 319.301 197.45 319.339 197.391C319.378 197.332 319.393 197.26 319.38 197.191C319.364 197.122 319.323 197.062 319.264 197.023C319.205 196.985 319.133 196.97 319.063 196.982Z" fill="#FFAB90"/>
<path d="M319.814 191.87C319.597 191.585 319.31 191.36 318.98 191.219C318.706 191.119 318.482 190.915 318.355 190.652C318.321 190.592 318.265 190.547 318.199 190.527C318.133 190.507 318.062 190.513 318 190.545C317.939 190.576 317.892 190.63 317.869 190.695C317.847 190.76 317.85 190.832 317.879 190.894C318.096 191.495 318.713 191.595 319.18 191.97C319.276 192.031 319.346 192.125 319.376 192.235C319.405 192.345 319.392 192.462 319.339 192.562C319.141 192.803 318.914 193.019 318.663 193.204C318.616 193.255 318.589 193.322 318.589 193.392C318.589 193.462 318.616 193.529 318.663 193.58C318.687 193.605 318.716 193.625 318.749 193.639C318.781 193.653 318.816 193.66 318.851 193.66C318.886 193.66 318.921 193.653 318.953 193.639C318.985 193.625 319.014 193.605 319.038 193.58C319.32 193.36 319.577 193.112 319.806 192.837C319.898 192.693 319.948 192.526 319.949 192.355C319.951 192.184 319.904 192.016 319.814 191.87Z" fill="#FFAB90"/>
<path d="M318.997 195.481C318.964 195.418 318.909 195.37 318.842 195.347C318.776 195.324 318.702 195.327 318.638 195.356C317.861 195.65 317.011 195.688 316.211 195.465C316.145 195.443 316.073 195.449 316.01 195.48C315.948 195.511 315.9 195.565 315.878 195.631C315.855 195.698 315.86 195.77 315.889 195.834C315.918 195.897 315.971 195.947 316.036 195.973C316.974 196.23 317.97 196.184 318.88 195.84C318.941 195.806 318.988 195.75 319.009 195.684C319.031 195.617 319.027 195.545 318.997 195.481Z" fill="#3B1411"/>
<path d="M307.087 248.674C306.826 250.279 306.249 251.817 305.39 253.198C304.531 254.58 303.407 255.777 302.083 256.722C301.808 256.922 302.167 257.314 302.45 257.114C303.825 256.122 304.991 254.867 305.88 253.423C306.768 251.979 307.363 250.374 307.629 248.699C307.679 248.357 307.146 248.34 307.087 248.674Z" fill="#A86114"/>
<path d="M323.751 247.923L307.312 248.399C306.97 248.399 306.945 248.949 307.312 248.932L323.742 248.457C324.067 248.449 324.092 247.915 323.751 247.923Z" fill="#A86114"/>
<path d="M327.07 254.695C326.026 253.978 325.188 253 324.64 251.859C324.091 250.718 323.851 249.453 323.942 248.19C323.942 247.848 323.434 247.823 323.4 248.19C323.307 249.547 323.57 250.905 324.162 252.129C324.754 253.353 325.656 254.402 326.778 255.171C327.061 255.337 327.353 254.887 327.07 254.695Z" fill="#A86114"/>
<path d="M306.47 251.034L289.873 238.466C288.635 239.218 287.629 240.297 286.965 241.585C286.301 242.872 286.006 244.318 286.112 245.763L304.068 254.979C305.051 253.784 305.86 252.456 306.47 251.034Z" fill="#FFC9B9"/>
<path d="M290.015 238.249C288.48 238.992 287.214 240.193 286.392 241.688C285.571 243.182 285.234 244.895 285.428 246.589C285.47 246.931 285.995 246.806 285.954 246.472C285.783 244.894 286.106 243.302 286.878 241.916C287.65 240.53 288.834 239.417 290.265 238.732C290.574 238.574 290.324 238.107 290.015 238.249Z" fill="#A86114"/>
<path d="M292.734 238.182C292.032 237.363 291.095 236.782 290.049 236.517C289.004 236.253 287.902 236.319 286.896 236.706C286.579 236.831 286.829 237.306 287.146 237.181C288.051 236.839 289.04 236.786 289.977 237.03C290.913 237.273 291.751 237.801 292.375 238.541C292.584 238.808 292.984 238.449 292.734 238.182Z" fill="#A86114"/>
<path d="M300.565 221.477C300.565 221.135 300.007 221.11 300.032 221.477C300.39 226.593 300.256 231.732 299.631 236.823C299.631 237.165 300.123 237.19 300.165 236.823C300.79 231.732 300.924 226.593 300.565 221.477Z" fill="#004FFF"/>
<path d="M318.922 206.832C318.813 206.507 318.288 206.624 318.396 206.957C318.822 208.216 318.171 209.459 317.429 210.41C317.1 210.894 316.713 211.336 316.278 211.728C316.062 211.913 315.787 212.014 315.502 212.014C315.218 212.014 314.943 211.913 314.727 211.728C314.251 211.402 313.834 211.002 313.376 210.66C312.892 210.304 312.391 209.973 311.874 209.668C310.846 209.075 309.759 208.592 308.63 208.225C307.471 207.849 305.936 207.391 305.744 205.973C305.694 205.631 305.177 205.748 305.219 206.09C305.394 207.374 306.578 208.083 307.721 208.475C309.046 208.896 310.331 209.438 311.557 210.093C312.135 210.436 312.691 210.812 313.225 211.219C313.71 211.653 314.232 212.044 314.785 212.386C316.028 213.004 316.912 211.944 317.621 211.06C318.588 209.818 319.422 208.342 318.922 206.832Z" fill="#A86114"/>
<path d="M310.248 213.396C310.131 213.079 309.606 213.187 309.723 213.512C310.885 216.832 311.203 220.389 310.648 223.862C310.598 224.196 311.132 224.221 311.19 223.862C311.746 220.349 311.422 216.753 310.248 213.396Z" fill="white"/>
<path d="M319.639 212.67C319.539 212.345 319.013 212.461 319.113 212.787C320.328 216.626 320.534 220.713 319.714 224.655C319.639 224.988 320.148 225.155 320.223 224.813C321.07 220.782 320.869 216.601 319.639 212.67Z" fill="white"/>
<path d="M300.874 370.121L297.596 352.307C296.487 346.26 295.995 333.7 296.137 327.553L296.287 321.065L290.974 289.131H309.923L304.81 322.032L305.486 325.318C306.987 332.549 307.588 346.36 307.279 353.741L306.587 370.296L300.874 370.121Z" fill="#FFC9B9"/>
<path d="M332.366 289.131L321.257 370.121H315.544L314.576 348.228C314.293 341.94 315.219 329.221 317.295 323.283L312.383 288.906L332.366 289.131Z" fill="#FFC9B9"/>
<path d="M309.923 289.131H290.974L291.266 290.849H309.656L309.923 289.131Z" fill="#FFAB90"/>
<path d="M304.81 322.032L309.656 290.849H291.266L296.27 321.065L296.12 327.553C295.978 333.7 296.47 346.26 297.58 352.307L300.857 370.121L306.57 370.279L307.262 353.741C307.571 346.36 306.97 332.549 305.469 325.318L304.81 322.032Z" fill="#FFC9B9"/>
<path d="M332.366 289.131L312.383 288.906L312.667 290.849H332.132L332.366 289.131Z" fill="#FFAB90"/>
<path d="M312.667 290.849L317.295 323.283C315.219 329.221 314.293 341.94 314.576 348.228L315.544 370.121H321.257L332.099 290.849H312.667Z" fill="#FFC9B9"/>
<path d="M347.027 171.846V171.804L350.288 165.707L346.794 163.055L343.333 164.381L342.716 169.469C342.506 170.153 342.393 170.863 342.382 171.579L347.027 171.846Z" fill="#FFC9B9"/>
<path d="M346.402 102.415L358.437 126.793L385.341 130.704L365.867 149.678L370.463 176.474L346.402 163.823L322.341 176.474L326.936 149.678L307.471 130.704L334.367 126.793L346.402 102.415Z" fill="#407BFF"/>
<path d="M318.221 129.145L307.471 130.704L326.928 149.678L322.341 176.474L346.402 163.823L370.463 176.474L366.568 153.74C347.845 152.939 329.247 144.19 318.221 129.145Z" fill="#004FFF"/>
<path d="M343.358 171.137C343.758 170.803 344.074 170.38 344.281 169.902C344.488 169.424 344.58 168.905 344.55 168.385C344.562 167.87 344.447 167.361 344.216 166.902C343.985 166.442 343.644 166.046 343.224 165.749C343.202 164.957 342.939 164.191 342.47 163.553C342 162.915 341.347 162.436 340.597 162.18C341.544 165.233 342.143 168.383 342.382 171.57L343.358 171.137Z" fill="#FFC9B9"/>
<path d="M342.299 163.064C342.774 163.314 342.941 164.031 343.041 164.657C343.039 164.997 343.128 165.331 343.3 165.625C343.472 165.918 343.719 166.16 344.017 166.325C344.513 166.818 344.81 167.477 344.851 168.176C344.865 169.008 344.741 169.837 344.484 170.628C344.409 170.887 344.142 170.686 344.208 170.436C344.46 169.684 344.57 168.893 344.534 168.101C344.5 167.771 344.397 167.452 344.232 167.165C344.067 166.877 343.843 166.628 343.575 166.433C343.351 166.272 343.168 166.061 343.041 165.816C342.918 165.551 342.834 165.27 342.791 164.982C342.691 164.406 342.624 163.647 342.157 163.406C341.94 163.347 342.115 162.972 342.299 163.064Z" fill="#FFAB90"/>
<path d="M316.678 182.062C316.105 182.659 315.444 183.166 314.718 183.563C314.011 183.944 313.431 184.524 313.05 185.231C312.742 186.015 313.05 186.858 312.992 187.675C312.95 188.244 312.778 188.796 312.488 189.287C312.199 189.779 311.801 190.198 311.324 190.511C310.211 191.245 308.882 191.58 307.554 191.461C307.412 188.893 307.304 186.182 308.83 183.955C309.979 182.389 311.612 181.243 313.476 180.694C315.077 180.144 318.588 179.702 316.678 182.062Z" fill="#6C301E"/>
<path d="M128.144 189.318C127.31 190.377 126.476 191.386 125.792 192.27C121.03 193.279 119.546 194.772 117.552 199.209L121.03 216.164C127.944 213.763 133.215 206.94 137.819 201.253L138.978 199.81C138.611 199.785 138.247 199.741 137.885 199.676C135.39 199.169 133.112 197.901 131.368 196.046C129.623 194.191 128.497 191.84 128.144 189.318Z" fill="#407BFF"/>
<path d="M143.832 183.78C143.098 181.495 141.43 179.068 139.036 179.127C137.727 179.276 136.508 179.864 135.575 180.795C133.298 182.696 130.571 186.224 128.144 189.326C128.497 191.848 129.623 194.199 131.368 196.054C133.112 197.909 135.39 199.178 137.885 199.685C138.247 199.749 138.611 199.794 138.978 199.818C143.006 194.706 145.875 190.152 143.832 183.78Z" fill="#FFAB91"/>
<path d="M96.8941 200.46C96.8795 199.77 96.724 199.09 96.4372 198.462C96.1503 197.833 95.7382 197.271 95.2261 196.807C94.2143 195.875 93.0058 195.183 91.69 194.781C88.845 193.883 85.805 193.802 82.9163 194.547C77.8297 191.087 72.9326 187.357 68.2462 183.372C65.3523 185.507 62.3332 190.044 60.0647 192.846C68.9468 203.73 80.5477 210.927 93.7333 215.772L96.8941 200.46Z" fill="#FFAB91"/>
<path d="M96.8941 200.46C96.8795 199.77 96.724 199.09 96.4371 198.462C96.1503 197.833 95.7382 197.271 95.2261 196.807C94.2143 195.875 93.0057 195.183 91.69 194.781C88.845 193.883 85.805 193.802 82.9163 194.547C81.4151 193.488 79.8972 192.412 78.396 191.32C75.2768 195.306 73.8424 200.102 73.2669 205.139C79.5925 209.596 86.4945 213.174 93.7833 215.772L96.8941 200.46Z" fill="#407BFF"/>
<path d="M91.2563 214.813C85.4183 210.235 79.7555 205.322 74.0676 200.552C73.691 202.061 73.4125 203.594 73.2336 205.139C78.8259 209.084 84.878 212.333 91.2563 214.813Z" fill="#004FFF"/>
<path d="M90.489 260.958C108.754 263.144 108.487 274.519 108.487 274.519L101.106 321.924L95.8433 363.249H87.128C83.4 308.947 90.489 260.958 90.489 260.958Z" fill="#407BFF"/>
<path d="M103.574 273.869C103.574 273.869 95.4513 268.198 94.5005 263.244L124.992 264.42C124.992 264.42 130.096 328.463 129.996 363.265H121.322L103.574 273.869Z" fill="#004FFF"/>
<path d="M129.27 363.265C129.27 364.558 129.27 365.817 129.27 367.018H122.381L121.998 363.265H129.27Z" fill="#FFAB91"/>
<path d="M95.1177 363.265C95.1177 364.558 95.1177 365.817 95.1177 367.018H88.2289L87.8452 363.265H95.1177Z" fill="#FFAB91"/>
<path d="M97.2945 268.223C95.6849 266.463 94.2671 264.453 93.9084 262.543L124.716 260.958C124.716 260.958 124.967 264.561 125.083 266.063C116.026 268.448 106.612 269.18 97.2945 268.223Z" fill="#CE8F00"/>
<path d="M121.939 366.46L130.004 366.218C132.287 368.843 133.881 371.996 134.641 375.392H120.096C120.373 372.354 120.991 369.358 121.939 366.46Z" fill="#D07557"/>
<path d="M134.641 375.4C134.716 375.725 134.791 376.051 134.849 376.384C134.875 376.501 134.875 376.621 134.85 376.738C134.825 376.854 134.775 376.964 134.704 377.059C134.633 377.155 134.542 377.234 134.438 377.292C134.333 377.35 134.218 377.384 134.099 377.393H120.755C120.535 377.376 120.331 377.273 120.187 377.106C120.043 376.938 119.971 376.721 119.988 376.501C119.988 376.134 120.046 375.767 120.079 375.4H134.641Z" fill="#A86114"/>
<path d="M95.5598 366.46L87.4866 366.218C85.2432 368.761 71.7074 371.972 70.9234 375.392H97.4196C97.1414 372.353 96.5174 369.356 95.5598 366.46Z" fill="#D07557"/>
<path d="M70.89 375.4C70.815 375.725 70.7316 376.051 70.6732 376.384C70.6478 376.501 70.6477 376.621 70.6728 376.738C70.6979 376.854 70.7477 376.964 70.8189 377.059C70.89 377.155 70.9808 377.234 71.0851 377.292C71.1895 377.35 71.305 377.384 71.4238 377.393H96.744C96.9639 377.376 97.1681 377.273 97.3119 377.106C97.4557 376.938 97.5274 376.721 97.5113 376.501C97.5113 376.134 97.4529 375.767 97.4196 375.4H70.89Z" fill="#A86114"/>
<path d="M122.857 325.418C123.857 323.55 124.9 321.724 125.726 319.747C126.529 317.735 127.211 315.677 127.769 313.584C127.844 313.325 128.177 313.434 128.136 313.692C127.732 315.851 127.095 317.96 126.234 319.981C125.46 322.006 124.444 323.93 123.207 325.71C123.048 325.936 122.731 325.652 122.857 325.418Z" fill="#A86114"/>
<path d="M91.2396 202.662C91.3102 201.44 91.724 200.263 92.4336 199.265C93.1432 198.268 94.1198 197.491 95.2512 197.024C100.241 195.039 105.618 194.221 110.972 194.631C115.864 195.01 120.69 195.99 125.342 197.55C126.823 198.03 128.084 199.025 128.895 200.354C129.706 201.684 130.013 203.26 129.762 204.797C126.856 223.037 125.739 241.517 126.426 259.974C126.476 261.167 126.585 262.885 125.442 263.244C114.959 266.513 100.005 267.055 90.0303 264.395C87.5283 263.736 89.5049 261.451 89.4966 258.89C89.4465 240.559 90.2972 220.801 91.2396 202.662Z" fill="#407BFF"/>
<path d="M114.258 182.988C113.94 187.074 114.035 191.181 114.542 195.248C114.593 195.65 114.535 196.059 114.372 196.431C114.208 196.803 113.947 197.123 113.616 197.358C111.721 198.678 109.398 199.235 107.111 198.917C106.56 198.827 106.063 198.532 105.72 198.091C105.376 197.651 105.212 197.097 105.259 196.54C105.473 193.919 105.548 191.288 105.484 188.659C107.772 185.929 110.83 183.953 114.258 182.988Z" fill="#FFAB91"/>
<path d="M105.518 188.659C107.805 185.929 110.863 183.953 114.291 182.988C114.158 184.734 114.1 186.48 114.116 188.225C112.557 192.479 109.746 196.565 105.951 198.308C105.718 198.081 105.538 197.804 105.424 197.498C105.31 197.193 105.265 196.865 105.293 196.54C105.506 193.919 105.582 191.288 105.518 188.659Z" fill="#FF8A65"/>
<path d="M115.092 181.979C115.567 180.202 116.043 178.434 116.51 176.658C116.827 175.748 116.932 174.779 116.818 173.822C116.75 173.346 116.527 172.906 116.183 172.57C115.839 172.233 115.394 172.02 114.917 171.962C113.635 170.115 111.878 168.647 109.832 167.714C107.786 166.78 105.527 166.416 103.291 166.658C101.724 166.771 100.248 167.432 99.1209 168.526C97.9116 169.852 97.6114 171.771 97.6197 173.53C97.6197 175.674 98.5955 175.907 100.063 177.458C101.531 179.01 103.024 181.628 105.067 181.929C108.383 182.496 111.77 182.513 115.092 181.979Z" fill="#3E2410"/>
<path d="M114.592 182.012L115.868 177.158C116.154 176.331 116.251 175.451 116.151 174.581C116.084 174.153 115.879 173.759 115.567 173.458C115.256 173.157 114.855 172.966 114.425 172.913C113.274 171.229 111.686 169.89 109.832 169.039C107.978 168.189 105.927 167.859 103.9 168.084C102.482 168.172 101.142 168.763 100.122 169.752C99.1189 171.068 98.635 172.707 98.7623 174.356C98.7623 176.299 99.6463 176.516 100.972 177.934C102.298 179.352 103.658 181.695 105.476 182.004C108.493 182.515 111.574 182.518 114.592 182.012Z" fill="#170D05"/>
<path d="M99.8381 176.333C99.0792 182.037 101.423 192.129 104.575 192.245C111.306 192.487 112.748 188.259 113.874 184.114C114.002 184.229 114.153 184.316 114.317 184.369C114.481 184.423 114.654 184.441 114.825 184.422C115.402 184.279 115.903 183.921 116.226 183.422C116.743 182.646 117.269 181.445 116.718 180.569C116.051 179.502 114.575 179.285 113.949 180.569C113.884 178.513 113.423 176.488 112.59 174.606C112.48 174.3 112.303 174.022 112.072 173.793C111.841 173.563 111.562 173.388 111.256 173.28C108.109 172.229 104.715 172.18 101.54 173.138C101.247 173.232 100.982 173.395 100.766 173.613C100.55 173.83 100.389 174.097 100.297 174.389C100.097 175.025 99.9436 175.675 99.8381 176.333Z" fill="#FFAB91"/>
<g style="mix-blend-mode:multiply" opacity="0.37">
<path d="M110.922 185.69C107.548 184.774 103.952 185.158 100.847 186.766C101.731 189.827 103.057 192.187 104.567 192.245C110.98 192.47 112.59 188.642 113.741 184.689L114.175 180.319C113.074 182.112 112.006 183.905 110.922 185.69Z" fill="#170D05"/>
</g>
<path d="M116.76 180.569C116.654 180.36 116.504 180.176 116.319 180.032C116.134 179.888 115.919 179.787 115.69 179.735C115.461 179.684 115.223 179.685 114.994 179.737C114.765 179.789 114.551 179.891 114.366 180.036L114.191 180.319L113.758 184.689C113.808 184.497 113.866 184.306 113.916 184.114C114.044 184.229 114.195 184.316 114.359 184.369C114.522 184.423 114.696 184.441 114.867 184.422C115.444 184.279 115.945 183.921 116.268 183.422C116.76 182.646 117.269 181.445 116.76 180.569Z" fill="#FFAB91"/>
<path d="M113.949 180.536C113.884 178.479 113.423 176.455 112.59 174.573C112.48 174.267 112.303 173.989 112.072 173.76C111.841 173.53 111.562 173.355 111.256 173.247C108.11 172.196 104.715 172.146 101.54 173.105C101.247 173.199 100.982 173.362 100.766 173.579C100.55 173.797 100.389 174.063 100.297 174.356C100.095 175.003 99.9421 175.663 99.8382 176.333C99.5176 179.843 99.8628 183.383 100.856 186.766C103.958 185.16 107.55 184.776 110.922 185.69C111.998 183.905 113.065 182.112 114.141 180.319V180.211C114.062 180.309 113.997 180.419 113.949 180.536Z" fill="#FFAB91"/>
<path d="M114.166 180.211V180.319L114.341 180.036C114.279 180.089 114.22 180.148 114.166 180.211Z" fill="#FFAB91"/>
<path d="M105.918 176.691C106.835 175.524 109.362 176.324 110.288 177.075C110.455 177.208 110.663 177.383 110.647 177.625C110.642 177.686 110.62 177.745 110.583 177.794C110.546 177.843 110.496 177.88 110.438 177.901C110.155 177.976 109.88 177.742 109.646 177.617C109.331 177.449 108.994 177.326 108.645 177.25C108.218 177.158 107.779 177.133 107.344 177.175C106.937 177.289 106.516 177.35 106.093 177.358C105.785 177.308 105.785 176.891 105.918 176.691Z" fill="#170D05"/>
<path d="M107.286 178.726C107.351 178.608 107.458 178.518 107.586 178.476C107.653 178.443 107.728 178.426 107.803 178.426H107.953C108.048 178.448 108.135 178.497 108.203 178.568L108.287 178.676C108.336 178.763 108.362 178.86 108.362 178.96V179.026C108.382 179.094 108.382 179.167 108.362 179.235C108.338 179.305 108.298 179.367 108.245 179.418C108.196 179.474 108.133 179.515 108.061 179.535C107.994 179.569 107.92 179.587 107.845 179.585H107.694C107.603 179.56 107.52 179.511 107.453 179.443L107.361 179.327C107.311 179.244 107.285 179.148 107.286 179.051V178.985C107.262 178.9 107.262 178.811 107.286 178.726Z" fill="#3B1411"/>
<path d="M101.156 179.077C101.175 179.005 101.216 178.941 101.273 178.893C101.32 178.842 101.381 178.804 101.448 178.785C101.512 178.744 101.589 178.726 101.665 178.735H101.815C101.908 178.762 101.994 178.81 102.065 178.876L102.148 178.993C102.198 179.079 102.224 179.177 102.223 179.277V179.335C102.232 179.411 102.214 179.487 102.173 179.552C102.154 179.621 102.116 179.685 102.065 179.735C102.011 179.785 101.949 179.824 101.881 179.852C101.815 179.887 101.739 179.901 101.665 179.894H101.515C101.423 179.868 101.34 179.819 101.273 179.752L101.181 179.635C101.131 179.549 101.105 179.451 101.106 179.352V179.31C101.093 179.229 101.111 179.146 101.156 179.077Z" fill="#3B1411"/>
<path d="M100.08 177.492C100.206 177.294 100.372 177.125 100.567 176.996C100.763 176.866 100.983 176.78 101.214 176.741C101.649 176.624 102.106 176.624 102.54 176.741C102.637 176.768 102.721 176.83 102.776 176.914C102.832 176.999 102.854 177.1 102.841 177.2C102.79 177.542 102.499 177.55 102.232 177.55C101.872 177.55 101.515 177.618 101.181 177.75C100.956 177.842 99.7714 178.443 100.005 177.692C100.023 177.623 100.049 177.556 100.08 177.492Z" fill="#170D05"/>
<path d="M114.408 182.646C114.454 182.663 114.503 182.67 114.552 182.667C114.601 182.665 114.648 182.652 114.692 182.63C114.736 182.608 114.775 182.578 114.806 182.54C114.838 182.503 114.861 182.459 114.875 182.412C114.88 182.363 114.873 182.314 114.856 182.268C114.839 182.221 114.811 182.18 114.775 182.146C114.746 182.107 114.708 182.075 114.665 182.053C114.622 182.031 114.574 182.02 114.525 182.021C114.491 182.019 114.458 182.01 114.428 181.994C114.398 181.979 114.372 181.956 114.352 181.929C114.332 181.902 114.319 181.87 114.313 181.837C114.306 181.804 114.308 181.77 114.316 181.737C114.368 181.419 114.53 181.13 114.774 180.921C115.019 180.712 115.329 180.596 115.651 180.594C115.803 180.602 115.951 180.651 116.077 180.736C116.203 180.821 116.304 180.94 116.368 181.078C116.418 181.216 116.418 181.366 116.368 181.503C116.368 181.578 116.243 181.795 116.126 181.687C116.009 181.578 116.084 181.528 116.059 181.453C116.036 181.368 116 181.286 115.951 181.212C115.901 181.141 115.832 181.086 115.753 181.052C115.673 181.018 115.586 181.007 115.501 181.02C115.336 181.046 115.183 181.117 115.057 181.226C114.932 181.335 114.84 181.478 114.792 181.637C114.948 181.705 115.076 181.826 115.152 181.978C115.228 182.131 115.248 182.305 115.209 182.471C115.152 182.663 115.023 182.826 114.849 182.926C114.675 183.026 114.469 183.054 114.275 183.005C114.066 182.971 114.175 182.596 114.408 182.646Z" fill="#FF8A65"/>
<path d="M97.6364 260.975C101.995 261.374 106.383 260.635 110.372 258.832C114.044 257.152 117.252 254.605 119.721 251.409C121.088 249.654 122.21 247.721 123.057 245.663C123.182 245.371 123.632 245.605 123.507 245.905C121.934 249.649 119.5 252.97 116.401 255.596C113.104 258.373 109.155 260.267 104.926 261.1C102.484 261.577 99.9875 261.7 97.5113 261.467C97.2027 261.442 97.3195 260.95 97.6364 260.975Z" fill="#B3512D"/>
<path d="M105.684 199.868C107.412 200.348 109.233 200.379 110.975 199.959C112.718 199.539 114.324 198.681 115.642 197.466C115.876 197.249 116.251 197.583 116.009 197.808C114.632 199.09 112.949 199.998 111.121 200.445C109.293 200.892 107.381 200.863 105.568 200.36C105.259 200.277 105.368 199.785 105.684 199.868Z" fill="#1D253D"/>
<path d="M102.515 181.52C102.963 181.099 103.291 180.566 103.466 179.977C103.516 179.652 104.008 179.769 103.958 180.086C103.766 181.17 102.707 181.754 102.348 182.729C102.246 183.004 102.224 183.303 102.285 183.59C102.347 183.877 102.488 184.14 102.694 184.35C102.9 184.559 103.161 184.705 103.447 184.771C103.733 184.837 104.032 184.82 104.308 184.723C104.368 184.714 104.43 184.727 104.481 184.759C104.533 184.791 104.571 184.841 104.59 184.898C104.609 184.956 104.607 185.018 104.584 185.075C104.562 185.131 104.52 185.178 104.467 185.206C104.15 185.309 103.814 185.335 103.485 185.281C103.157 185.226 102.846 185.094 102.579 184.894C102.313 184.695 102.098 184.434 101.954 184.134C101.809 183.834 101.738 183.504 101.748 183.171C101.819 182.553 102.089 181.974 102.515 181.52Z" fill="#FF8A65"/>
<path d="M108.103 186.699C107.623 187.324 106.979 187.802 106.242 188.08C105.506 188.359 104.706 188.426 103.933 188.275C103.6 188.209 103.433 188.717 103.766 188.784C104.648 188.96 105.561 188.884 106.402 188.565C107.242 188.247 107.976 187.698 108.52 186.983C108.762 186.708 108.312 186.424 108.103 186.699Z" fill="#3B1411"/>
<path d="M100.747 87.3031L112.782 111.681L139.687 115.592L120.213 134.574L124.808 161.371L100.747 148.719L76.6863 161.371L81.2816 134.574L61.8077 115.592L88.7126 111.681L100.747 87.3031Z" fill="#407BFF"/>
<path d="M72.558 114.033L61.7994 115.592L81.2733 134.574L76.728 161.362L100.789 148.719L124.85 161.362L120.93 138.627C102.19 137.827 83.5919 129.078 72.558 114.033Z" fill="#407BFF"/>
<path d="M83.8838 150.762C84.2005 150.7 84.5262 150.7 84.8429 150.762C84.9991 150.801 85.1421 150.881 85.2566 150.994C85.3711 151.107 85.4529 151.249 85.4934 151.404C85.5071 151.599 85.4608 151.792 85.3609 151.959C85.261 152.126 85.1122 152.259 84.9346 152.338C84.5756 152.486 84.1957 152.576 83.8087 152.605C82.4882 152.799 81.2392 153.327 80.1808 154.14C79.6609 154.603 79.103 155.022 78.5128 155.391C76.4528 156.55 74.8432 154.323 76.9866 153.006C79.0955 151.766 81.4491 151 83.8838 150.762Z" fill="#FFAB91"/>
<path d="M85.1097 152.755C85.4259 152.689 85.7526 152.689 86.0688 152.755C86.2249 152.797 86.3673 152.879 86.4815 152.993C86.5957 153.108 86.6778 153.25 86.7193 153.406C86.7318 153.6 86.6851 153.793 86.5853 153.96C86.4855 154.127 86.3374 154.259 86.1606 154.34C85.8011 154.485 85.4212 154.572 85.0347 154.599C83.7136 154.795 82.4647 155.326 81.4068 156.141C80.8826 156.599 80.325 157.017 79.7388 157.392C77.6788 158.543 76.0692 156.325 78.2125 155.007C80.3208 153.765 82.6744 152.996 85.1097 152.755Z" fill="#FFAB91"/>
<path d="M84.7511 154.999C85.0678 154.937 85.3935 154.937 85.7102 154.999C85.8678 155.032 86.0124 155.111 86.1264 155.225C86.2403 155.339 86.3188 155.483 86.3524 155.641C86.3698 155.836 86.3251 156.031 86.2248 156.199C86.1244 156.367 85.9734 156.498 85.7936 156.575C85.4349 156.724 85.0548 156.814 84.6677 156.842C83.3408 157.057 82.0931 157.615 81.0481 158.46C80.5227 158.914 79.9652 159.329 79.3801 159.703C77.3118 160.862 75.7022 158.635 77.8539 157.317C79.9561 156.05 82.3103 155.259 84.7511 154.999Z" fill="#FFAB91"/>
<path d="M83.6752 157.292C83.9341 157.242 84.2003 157.242 84.4592 157.292C84.587 157.325 84.7035 157.392 84.7961 157.486C84.8887 157.58 84.9539 157.698 84.9846 157.826C84.9974 157.985 84.96 158.143 84.8776 158.28C84.7953 158.416 84.6723 158.523 84.5259 158.585C84.2328 158.703 83.9235 158.776 83.6085 158.802C82.5234 158.98 81.5032 159.437 80.6478 160.128C80.2318 160.5 79.7885 160.84 79.3218 161.145C77.6538 162.088 76.3277 160.311 78.0791 159.194C79.7843 158.161 81.6939 157.512 83.6752 157.292Z" fill="#FFAB91"/>
<path d="M76.7781 153.214C75.7955 154.017 74.9504 154.975 74.2761 156.05C73.4124 157.256 73.0561 158.753 73.2836 160.22C73.4228 160.95 73.7916 161.616 74.3362 162.122C74.8808 162.627 75.5727 162.946 76.311 163.03C77.1994 163.039 78.0644 162.745 78.763 162.196C79.4977 161.645 80.0959 160.933 80.5114 160.114C80.9268 159.295 81.1484 158.392 81.1588 157.473C81.1693 156.555 80.9685 155.647 80.5718 154.819C80.1752 153.99 79.5934 153.264 78.8714 152.697L76.7781 153.214Z" fill="#FFAB91"/>
<path d="M74.7181 157.267C71.3821 161.287 58.4051 181.603 58.33 186.749C58.2682 188.122 58.4987 189.492 59.0062 190.769C59.5138 192.045 60.2868 193.2 61.274 194.155C63.5842 196.182 66.278 195.673 67.8209 193.021C70.5731 188.234 76.0108 167.058 77.3118 160.562L74.7181 157.267Z" fill="#FFAB91"/>
<path d="M117.919 148.777C117.603 148.71 117.276 148.71 116.96 148.777C116.804 148.816 116.661 148.896 116.546 149.009C116.432 149.122 116.35 149.264 116.31 149.419C116.295 149.615 116.342 149.81 116.444 149.977C116.546 150.144 116.697 150.276 116.877 150.353C117.235 150.503 117.615 150.59 118.003 150.612C119.32 150.814 120.565 151.344 121.622 152.155C122.132 152.612 122.676 153.03 123.249 153.406C125.309 154.557 126.927 152.338 124.775 151.021C122.679 149.785 120.34 149.02 117.919 148.777Z" fill="#FFAB91"/>
<path d="M116.693 150.77C116.377 150.704 116.05 150.704 115.734 150.77C115.577 150.81 115.434 150.892 115.32 151.006C115.205 151.121 115.124 151.264 115.084 151.421C115.07 151.615 115.117 151.809 115.219 151.975C115.321 152.141 115.472 152.271 115.651 152.347C116.002 152.5 116.377 152.593 116.76 152.622C118.078 152.82 119.324 153.351 120.38 154.165C120.892 154.617 121.435 155.032 122.006 155.408C124.066 156.567 125.684 154.348 123.532 153.022C121.442 151.786 119.109 151.018 116.693 150.77Z" fill="#FFAB91"/>
<path d="M117.06 153.014C116.744 152.952 116.418 152.952 116.101 153.014C115.945 153.052 115.802 153.132 115.687 153.245C115.573 153.358 115.491 153.5 115.451 153.656C115.437 153.85 115.483 154.044 115.583 154.211C115.683 154.378 115.832 154.51 116.009 154.59C116.371 154.739 116.754 154.826 117.144 154.849C118.461 155.05 119.706 155.581 120.763 156.392C121.271 156.851 121.815 157.269 122.39 157.643C124.45 158.794 126.059 156.575 123.916 155.257C121.82 154.022 119.481 153.257 117.06 153.014Z" fill="#FFAB91"/>
<path d="M118.136 155.307C117.877 155.257 117.611 155.257 117.352 155.307C117.224 155.341 117.107 155.409 117.013 155.502C116.92 155.596 116.852 155.713 116.818 155.841C116.809 155.999 116.848 156.156 116.93 156.292C117.012 156.427 117.133 156.535 117.277 156.6C117.572 156.72 117.885 156.791 118.203 156.809C119.278 156.972 120.293 157.406 121.155 158.068C121.571 158.44 122.014 158.78 122.481 159.085C124.149 160.036 125.484 158.251 123.732 157.142C122.021 156.135 120.112 155.51 118.136 155.307Z" fill="#FFAB91"/>
<path d="M125.033 151.229C126.013 152.035 126.858 152.992 127.535 154.065C128.41 155.282 128.767 156.797 128.528 158.276C128.387 159.007 128.016 159.674 127.47 160.179C126.924 160.685 126.231 161.003 125.492 161.087C124.606 161.095 123.744 160.801 123.048 160.253C122.314 159.702 121.715 158.99 121.3 158.171C120.885 157.352 120.663 156.448 120.652 155.53C120.642 154.612 120.843 153.704 121.239 152.875C121.636 152.047 122.218 151.321 122.94 150.754L125.033 151.229Z" fill="#FFAB91"/>
<path d="M127.093 155.282C130.429 159.302 143.406 179.619 143.481 184.764C143.54 186.136 143.308 187.505 142.799 188.78C142.29 190.055 141.516 191.208 140.529 192.162C138.227 194.197 135.525 193.688 133.982 191.036C131.238 186.249 125.792 165.074 124.5 158.577L127.093 155.282Z" fill="#FFAB91"/>
<path d="M138.269 200.077C134.994 203.935 131.722 207.799 128.453 211.669C127.519 212.781 126.582 213.893 125.642 215.005C125.425 215.272 125.784 215.664 126.009 215.405L135.817 203.805L138.628 200.469C138.844 200.21 138.486 199.81 138.269 200.077Z" fill="#004FFF"/>
<path d="M90.5891 202.17C90.2945 206.701 90.0554 211.227 89.8719 215.747C89.6884 220.268 89.5577 224.819 89.4799 229.4C89.4382 231.952 89.4132 234.512 89.4048 237.064C89.4048 237.406 89.9386 237.431 89.9386 237.064C89.9386 232.527 90.0081 227.996 90.1471 223.47C90.2861 218.944 90.464 214.394 90.6809 209.818C90.8143 207.271 90.9644 204.722 91.1312 202.17C91.12 202.106 91.0867 202.048 91.0371 202.007C90.9875 201.965 90.9249 201.942 90.8602 201.942C90.7955 201.942 90.7328 201.965 90.6832 202.007C90.6337 202.048 90.6004 202.106 90.5891 202.17Z" fill="#004FFF"/>
<path d="M100.697 182.462C100.178 182.462 99.6697 182.308 99.2376 182.02C98.8056 181.731 98.4689 181.321 98.27 180.841C98.0712 180.361 98.0192 179.832 98.1205 179.323C98.2219 178.813 98.4721 178.345 98.8395 177.978C99.2069 177.61 99.675 177.36 100.185 177.259C100.694 177.157 101.222 177.209 101.703 177.408C102.183 177.607 102.593 177.944 102.882 178.376C103.17 178.808 103.324 179.316 103.324 179.835C103.322 180.531 103.045 181.198 102.552 181.691C102.06 182.183 101.393 182.46 100.697 182.462ZM100.697 177.458C100.23 177.458 99.774 177.597 99.3859 177.856C98.9978 178.116 98.6952 178.484 98.5166 178.915C98.338 179.347 98.2912 179.821 98.3823 180.279C98.4734 180.737 98.6982 181.158 99.0282 181.488C99.3583 181.818 99.7789 182.042 100.237 182.134C100.695 182.225 101.169 182.178 101.6 181.999C102.032 181.821 102.4 181.518 102.66 181.13C102.919 180.742 103.057 180.285 103.057 179.819C103.053 179.196 102.802 178.6 102.36 178.161C101.918 177.721 101.32 177.475 100.697 177.475V177.458Z" fill="#170D05"/>
<path d="M107.127 182.462C106.608 182.462 106.1 182.308 105.668 182.02C105.236 181.731 104.899 181.321 104.7 180.841C104.501 180.361 104.449 179.832 104.551 179.323C104.652 178.813 104.902 178.345 105.27 177.978C105.637 177.61 106.105 177.36 106.615 177.259C107.124 177.157 107.653 177.209 108.133 177.408C108.613 177.607 109.023 177.944 109.312 178.376C109.6 178.808 109.754 179.316 109.754 179.835C109.754 180.532 109.478 181.2 108.985 181.693C108.492 182.186 107.824 182.462 107.127 182.462ZM107.127 177.458C106.661 177.458 106.204 177.597 105.816 177.856C105.428 178.116 105.125 178.484 104.947 178.915C104.768 179.347 104.721 179.821 104.812 180.279C104.904 180.737 105.128 181.158 105.458 181.488C105.789 181.818 106.209 182.042 106.667 182.134C107.125 182.225 107.599 182.178 108.031 181.999C108.462 181.821 108.83 181.518 109.09 181.13C109.349 180.742 109.488 180.285 109.488 179.819C109.483 179.196 109.233 178.6 108.79 178.161C108.348 177.721 107.75 177.475 107.127 177.475V177.458Z" fill="#170D05"/>
<path d="M103.224 179.018L103.041 178.826C103.276 178.608 103.582 178.48 103.903 178.466C104.224 178.452 104.539 178.553 104.792 178.751L104.625 178.96C104.421 178.807 104.17 178.729 103.914 178.739C103.659 178.75 103.415 178.848 103.224 179.018Z" fill="#170D05"/>
<path d="M114.725 179.835C113.081 179.218 111.309 179.026 109.571 179.277V179.018C111.353 178.754 113.173 178.949 114.858 179.585L114.725 179.835Z" fill="#170D05"/>
<path d="M364.291 377.393H52.7172V379.395H364.291V377.393Z" fill="#001E4A"/>
</g>
<defs>
<clipPath id="clip0_1_1165">
<rect width="417" height="417" fill="white"/>
</clipPath>
</defs>
</svg>
