<svg width="439" height="328" viewBox="0 0 439 328" fill="none" xmlns="http://www.w3.org/2000/svg">
<path opacity="0.7" d="M261.674 5.22861C261.674 5.22861 198.232 -13.2399 135.568 24.1155C72.904 61.471 40.9976 131.119 13.5912 187.011C-13.8152 242.903 1.36933 297.643 48.8489 320.637C96.3285 343.631 128.978 304.756 195.831 299.684C262.684 294.612 280.598 302.86 336.3 264.164C392.003 225.468 402.601 139.965 359.267 79.1882C315.933 18.4119 261.674 5.22861 261.674 5.22861Z" fill="#719DFF"/>
<path d="M246.62 59.5142H102.354V270.077H246.62V59.5142Z" fill="#004FFF" stroke="#C17D5B" stroke-linecap="round" stroke-linejoin="round"/>
<path d="M237.339 69.7227H111.635V260.099H237.339V69.7227Z" fill="#407BFF" stroke="#8EB1FE" stroke-linecap="round" stroke-linejoin="round"/>
<path d="M149.732 53.0044H199.244C201.102 53.0044 202.885 53.7343 204.199 55.0334C205.514 56.3326 206.252 58.0946 206.252 59.9319V74.6751H142.723V59.9841C142.716 59.07 142.893 58.1636 143.242 57.317C143.591 56.4705 144.106 55.7007 144.757 55.0518C145.409 54.403 146.184 53.8881 147.037 53.5367C147.891 53.1853 148.807 53.0044 149.732 53.0044Z" fill="#407BFF" stroke="#8EB1FE" stroke-linecap="round" stroke-linejoin="round"/>
<path d="M170.206 44.144H178.663C179.662 44.1329 180.653 44.3185 181.579 44.69C182.504 45.0616 183.346 45.6115 184.054 46.3079C184.763 47.0043 185.324 47.8331 185.705 48.746C186.086 49.659 186.279 50.6378 186.273 51.6253V52.9837H162.712V51.6253C162.706 50.6475 162.896 49.6781 163.269 48.7727C163.643 47.8674 164.194 47.0437 164.89 46.3489C165.586 45.654 166.414 45.1016 167.326 44.7233C168.238 44.345 169.217 44.1481 170.206 44.144Z" fill="#407BFF" stroke="#8EB1FE" stroke-linecap="round" stroke-linejoin="round"/>
<path d="M122.502 99.282H171.549" stroke="#8EB1FE" stroke-linecap="round" stroke-linejoin="round"/>
<path d="M122.502 109.333H171.549" stroke="#8EB1FE" stroke-linecap="round" stroke-linejoin="round"/>
<path d="M122.502 142.446H225.976" stroke="#8EB1FE" stroke-linecap="round" stroke-linejoin="round"/>
<path d="M135.07 151.902H123.104V164.315H135.07V151.902Z" stroke="#8EB1FE" stroke-linecap="round" stroke-linejoin="round"/>
<path d="M190.692 151.902H178.726V164.315H190.692V151.902Z" stroke="#8EB1FE" stroke-linecap="round" stroke-linejoin="round"/>
<path d="M139.848 164.315H169.16" stroke="#8EB1FE" stroke-linecap="round" stroke-linejoin="round"/>
<path d="M195.47 164.315H224.782" stroke="#C17D5B" stroke-linecap="round" stroke-linejoin="round"/>
<path d="M135.07 176.143H123.104V188.556H135.07V176.143Z" stroke="#8EB1FE" stroke-linecap="round" stroke-linejoin="round"/>
<path d="M190.692 176.143H178.726V188.556H190.692V176.143Z" stroke="#8EB1FE" stroke-linecap="round" stroke-linejoin="round"/>
<path d="M139.848 188.556H169.16" stroke="#8EB1FE" stroke-linecap="round" stroke-linejoin="round"/>
<path d="M195.47 188.556H224.782" stroke="#C17D5B" stroke-linecap="round" stroke-linejoin="round"/>
<path d="M135.07 200.384H123.104V212.797H135.07V200.384Z" stroke="#C17D5B" stroke-linecap="round" stroke-linejoin="round"/>
<path d="M190.692 200.384H178.726V212.797H190.692V200.384Z" stroke="#C17D5B" stroke-linecap="round" stroke-linejoin="round"/>
<path d="M139.848 212.797H169.16" stroke="#C17D5B" stroke-linecap="round" stroke-linejoin="round"/>
<path d="M195.47 212.797H224.782" stroke="#C17D5B" stroke-linecap="round" stroke-linejoin="round"/>
<path d="M135.07 224.625H123.104V237.038H135.07V224.625Z" stroke="#C17D5B" stroke-linecap="round" stroke-linejoin="round"/>
<path d="M190.692 224.625H178.726V237.038H190.692V224.625Z" stroke="#C17D5B" stroke-linecap="round" stroke-linejoin="round"/>
<path d="M139.848 237.038H169.16" stroke="#C17D5B" stroke-linecap="round" stroke-linejoin="round"/>
<path d="M195.47 237.038H224.782" stroke="#C17D5B" stroke-linecap="round" stroke-linejoin="round"/>
<path d="M129.513 307.121H62.2676V234.943L93.8625 202.632L129.513 234.943V307.121Z" fill="#004FFF" stroke="#8EB1FE" stroke-linecap="round" stroke-linejoin="round"/>
<path d="M350.055 307.121H188.91V152.814L281.912 114.429L350.055 152.814V307.121Z" fill="#004FFF" stroke="#8EB1FE" stroke-linecap="round" stroke-linejoin="round"/>
<path d="M210.413 221.338H126.528V307.218H210.413V221.338Z" fill="#407BFF" stroke="#8EB1FE" stroke-linecap="round" stroke-linejoin="round"/>
<path d="M307.243 234.944H261.162V307.218H307.243V234.944Z" fill="#407BFF" stroke="#8EB1FE" stroke-linecap="round" stroke-linejoin="round"/>
<path d="M292.626 245.145H271.483V307.218H292.626V245.145Z" fill="#407BFF" stroke="#8EB1FE" stroke-linecap="round" stroke-linejoin="round"/>
<path d="M289.292 245.145H274.817V307.218H289.292V245.145Z" fill="#8EB1FE" stroke="#8EB1FE" stroke-linecap="round" stroke-linejoin="round"/>
<path d="M289.292 300.626H249.672V304.613H289.292V300.626Z" fill="#407BFF" stroke="#8EB1FE" stroke-linecap="round" stroke-linejoin="round"/>
<path d="M292.626 245.145H271.483V250.246H292.626V245.145Z" fill="#407BFF" stroke="#8EB1FE" stroke-linecap="round" stroke-linejoin="round"/>
<path d="M113.629 245.145H79.7162V307.218H113.629V245.145Z" fill="#407BFF" stroke="#8EB1FE" stroke-linecap="round" stroke-linejoin="round"/>
<path d="M108.272 245.145H85.0513V307.218H108.272V245.145Z" fill="#8EB1FE" stroke="#8EB1FE" stroke-linecap="round" stroke-linejoin="round"/>
<path d="M113.629 245.145H79.7162V250.246H113.629V245.145Z" fill="#407BFF" stroke="#8EB1FE" stroke-linecap="round" stroke-linejoin="round"/>
<path d="M233.919 233.485H206.97V281.704H233.919V233.485Z" fill="#407BFF" stroke="#8EB1FE" stroke-linecap="round" stroke-linejoin="round"/>
<path d="M434.912 307.121H319.082V152.814L376.314 114.429L434.912 152.814V307.121Z" fill="#407BFF" stroke="#8EB1FE" stroke-linecap="round" stroke-linejoin="round"/>
<path d="M436.366 153.321L376.205 114.742L318.601 153.656V157.417L376.62 118.503L436.366 157.082V153.321Z" fill="#407BFF" stroke="#8EB1FE" stroke-linecap="round" stroke-linejoin="round"/>
<path d="M361.523 124.349L312.359 202.059L319.083 202.913L370.258 119.994L434.912 214.281L438.356 214.141L373.855 116.082L361.523 124.349Z" fill="#004FFF" stroke="#8EB1FE" stroke-linecap="round" stroke-linejoin="round"/>
<path d="M319.082 152.814H182.022L236.203 114.429L376.205 115.207L319.082 152.814Z" fill="#004FFF" stroke="#8EB1FE" stroke-linecap="round" stroke-linejoin="round"/>
<path d="M404.334 219.393H339.352V307.12H404.334V219.393Z" fill="#FCE7DD" stroke="#8EB1FE" stroke-linecap="round" stroke-linejoin="round"/>
<path d="M409.494 219.393H344.512V307.12H409.494V219.393Z" fill="#407BFF" stroke="#8EB1FE" stroke-linecap="round" stroke-linejoin="round"/>
<path d="M399.622 232.707H354.373V278.915H399.622V232.707Z" fill="#407BFF" stroke="#8EB1FE" stroke-width="2" stroke-linecap="round" stroke-linejoin="round"/>
<path d="M386.514 232.707H367.491V278.915H386.514V232.707Z" fill="#407BFF" stroke="#8EB1FE" stroke-width="2" stroke-linecap="round" stroke-linejoin="round"/>
<path d="M411.462 215.47H332.224V223.305H411.462V215.47Z" fill="#FCE7DD" stroke="#8EB1FE" stroke-linecap="round" stroke-linejoin="round"/>
<path d="M416.622 215.47H337.384V223.305H416.622V215.47Z" fill="#407BFF" stroke="#8EB1FE" stroke-linecap="round" stroke-linejoin="round"/>
<path d="M294.714 233.485H290.691V275.782H294.714V233.485Z" fill="#407BFF" stroke="#8EB1FE" stroke-linecap="round" stroke-linejoin="round"/>
<path d="M305.92 233.485H301.897V275.782H305.92V233.485Z" fill="#407BFF" stroke="#8EB1FE" stroke-linecap="round" stroke-linejoin="round"/>
<path d="M295.949 275.198H289.292V279.942H295.949V275.198Z" fill="#407BFF" stroke="#8EB1FE" stroke-linecap="round" stroke-linejoin="round"/>
<path d="M307.232 275.198H300.574V279.942H307.232V275.198Z" fill="#407BFF" stroke="#8EB1FE" stroke-linecap="round" stroke-linejoin="round"/>
<path d="M295.949 237.71H289.292V240.379H295.949V237.71Z" fill="#407BFF" stroke="#8EB1FE" stroke-linecap="round" stroke-linejoin="round"/>
<path d="M307.232 237.71H300.574V240.379H307.232V237.71Z" fill="#407BFF" stroke="#8EB1FE" stroke-linecap="round" stroke-linejoin="round"/>
<path d="M309.637 279.542H286.099V307.121H309.637V279.542Z" fill="#407BFF" stroke="#8EB1FE" stroke-linecap="round" stroke-linejoin="round"/>
<path d="M237.941 233.485H233.918V275.782H237.941V233.485Z" fill="#407BFF" stroke="#8EB1FE" stroke-linecap="round" stroke-linejoin="round"/>
<path d="M249.148 233.485H245.124V275.782H249.148V233.485Z" fill="#407BFF" stroke="#8EB1FE" stroke-linecap="round" stroke-linejoin="round"/>
<path d="M239.177 275.198H232.519V279.942H239.177V275.198Z" fill="#407BFF" stroke="#8EB1FE" stroke-linecap="round" stroke-linejoin="round"/>
<path d="M250.459 275.198H243.801V279.942H250.459V275.198Z" fill="#407BFF" stroke="#8EB1FE" stroke-linecap="round" stroke-linejoin="round"/>
<path d="M239.177 237.71H232.519V240.379H239.177V237.71Z" fill="#407BFF" stroke="#8EB1FE" stroke-linecap="round" stroke-linejoin="round"/>
<path d="M250.459 237.71H243.801V240.379H250.459V237.71Z" fill="#407BFF" stroke="#8EB1FE" stroke-linecap="round" stroke-linejoin="round"/>
<path d="M252.875 279.542H229.338V307.121H252.875V279.542Z" fill="#407BFF" stroke="#8EB1FE" stroke-linecap="round" stroke-linejoin="round"/>
<path d="M229.917 279.542H201.219V307.121H229.917V279.542Z" fill="#004FFF" stroke="#8EB1FE" stroke-linecap="round" stroke-linejoin="round"/>
<path d="M309.648 237.407H220.898L235.952 229.573H309.648V237.407Z" fill="#407BFF" stroke="#8EB1FE" stroke-linecap="round" stroke-linejoin="round"/>
<path d="M354.81 244.453H399.185" stroke="#8EB1FE" stroke-linecap="round" stroke-linejoin="round"/>
<path d="M354.81 255.422H399.185" stroke="#8EB1FE" stroke-linecap="round" stroke-linejoin="round"/>
<path d="M354.81 266.391H399.185" stroke="#8EB1FE" stroke-linecap="round" stroke-linejoin="round"/>
<path d="M89.9378 201.141L57.7744 235.624H60.4638L92.0477 202.632L89.9378 201.141Z" fill="#8EB1FE" stroke="#8EB1FE" stroke-linecap="round" stroke-linejoin="round"/>
<path d="M123.948 234.09H212.13L278.195 201.141H89.9375L123.948 234.09Z" fill="#004FFF" stroke="#8EB1FE" stroke-linecap="round" stroke-linejoin="round"/>
<path d="M324.623 200.672H273.558L182.545 233.621H228.133L324.623 200.672Z" fill="#004FFF" stroke="#8EB1FE" stroke-linecap="round" stroke-linejoin="round"/>
<path d="M438.356 204.804L378.37 113.823C378.134 113.458 377.808 113.158 377.422 112.953C377.036 112.747 376.603 112.643 376.165 112.649C375.727 112.656 375.297 112.773 374.918 112.99C374.538 113.207 374.221 113.516 373.997 113.888L320.023 202.005L215.574 235.225V240.552L322.472 206.609C323.073 206.435 323.59 206.051 323.926 205.528L376.282 120.026L438.356 214.173V204.804Z" fill="#407BFF" stroke="#8EB1FE" stroke-linecap="round" stroke-linejoin="round"/>
<path d="M303.045 158.552H284.82V188.313H303.045V158.552Z" stroke="#8EB1FE" stroke-width="2" stroke-linecap="round" stroke-linejoin="round"/>
<path d="M293.927 159.341V187.535" stroke="#8EB1FE" stroke-linecap="round" stroke-linejoin="round"/>
<path d="M302.64 173.432H285.214" stroke="#8EB1FE" stroke-linecap="round" stroke-linejoin="round"/>
<path d="M174.796 245.566H156.571V275.328H174.796V245.566Z" stroke="#8EB1FE" stroke-width="2" stroke-linecap="round" stroke-linejoin="round"/>
<path d="M165.678 246.344V274.55" stroke="#8EB1FE" stroke-linecap="round" stroke-linejoin="round"/>
<path d="M174.402 260.447H156.965" stroke="#8EB1FE" stroke-linecap="round" stroke-linejoin="round"/>
<path d="M384.677 157.99H366.453V187.751H384.677V157.99Z" stroke="#8EB1FE" stroke-width="2" stroke-linecap="round" stroke-linejoin="round"/>
<path d="M375.56 158.768V186.973" stroke="#8EB1FE" stroke-linecap="round" stroke-linejoin="round"/>
<path d="M384.273 172.871H366.847" stroke="#8EB1FE" stroke-linecap="round" stroke-linejoin="round"/>
<path d="M264.081 158.552H245.857V188.313H264.081V158.552Z" stroke="#8EB1FE" stroke-width="2" stroke-linecap="round" stroke-linejoin="round"/>
<path d="M254.963 159.341V187.535" stroke="#8EB1FE" stroke-linecap="round" stroke-linejoin="round"/>
<path d="M263.688 173.432H246.25" stroke="#8EB1FE" stroke-linecap="round" stroke-linejoin="round"/>
<path d="M225.118 158.552H206.893V188.313H225.118V158.552Z" stroke="#8EB1FE" stroke-width="2" stroke-linecap="round" stroke-linejoin="round"/>
<path d="M216.011 159.341V187.535" stroke="#8EB1FE" stroke-linecap="round" stroke-linejoin="round"/>
<path d="M224.724 173.432H207.287" stroke="#8EB1FE" stroke-linecap="round" stroke-linejoin="round"/>
<path d="M144.174 222.192H133.854L121.817 210.283H132.137L144.174 222.192Z" fill="#407BFF"/>
<path d="M175.998 222.192H165.678L153.641 210.283H163.962L175.998 222.192Z" fill="#407BFF"/>
<path d="M89.9705 254.492H86.2315V266.401H89.9705V254.492Z" fill="#004FFF" stroke="#8EB1FE" stroke-linecap="round" stroke-linejoin="round"/>
<path d="M94.1253 254.492H90.3864V266.401H94.1253V254.492Z" fill="#004FFF" stroke="#8EB1FE" stroke-linecap="round" stroke-linejoin="round"/>
<path d="M98.2901 254.492H94.5403V266.401H98.2901V254.492Z" fill="#004FFF" stroke="#8EB1FE" stroke-linecap="round" stroke-linejoin="round"/>
<path d="M102.456 254.492H98.7059V266.401H102.456V254.492Z" fill="#004FFF" stroke="#8EB1FE" stroke-linecap="round" stroke-linejoin="round"/>
<path d="M106.599 254.492H102.86V266.401H106.599V254.492Z" fill="#004FFF" stroke="#8EB1FE" stroke-linecap="round" stroke-linejoin="round"/>
<path d="M215.574 234.554H123.085V240.552H215.574V234.554Z" fill="#407BFF" stroke="#8EB1FE" stroke-linecap="round" stroke-linejoin="round"/>
<path d="M215.574 234.554H180.863V240.552H215.574V234.554Z" fill="#FCE7DD" stroke="#8EB1FE" stroke-linecap="round" stroke-linejoin="round"/>
<path d="M123.085 234.555L89.9378 201.141L57.7744 235.624H62.2677L90.058 206.339L123.085 240.552V234.555Z" fill="#FCE7DD" stroke="#8EB1FE" stroke-linecap="round" stroke-linejoin="round"/>
<path d="M289.292 303.49H249.672V307.218H289.292V303.49Z" fill="#407BFF" stroke="#8EB1FE" stroke-linecap="round" stroke-linejoin="round"/>
<path d="M318.602 153.656H181.497V157.406H318.602V153.656Z" fill="#FCE7DD" stroke="#8EB1FE" stroke-linecap="round" stroke-linejoin="round"/>
</svg>
