<svg width="446" height="300" viewBox="0 0 446 300" fill="none" xmlns="http://www.w3.org/2000/svg">
<path d="M39.5774 208.906C38.7214 209.745 38.0419 210.744 37.5781 211.844C37.1144 212.944 36.8757 214.124 36.8757 215.315C36.8757 216.507 37.1144 217.687 37.5781 218.787C38.0419 219.887 38.7214 220.885 39.5774 221.724C41.2903 223.396 43.6005 224.333 46.0076 224.333C48.4147 224.333 50.7248 223.396 52.4377 221.724L58.8679 215.368L52.4377 209.012C50.739 207.326 48.4367 206.37 46.0296 206.35C43.6225 206.33 41.3044 207.249 39.5774 208.906ZM48.9012 212.466C49.474 213.032 49.8643 213.753 50.0225 214.538C50.1808 215.323 50.0999 216.137 49.7902 216.876C49.4804 217.616 48.9557 218.248 48.2824 218.693C47.6091 219.138 46.8174 219.375 46.0076 219.375C45.1977 219.375 44.4061 219.138 43.7328 218.693C43.0595 218.248 42.5348 217.616 42.225 216.876C41.9153 216.137 41.8344 215.323 41.9927 214.538C42.1509 213.753 42.5411 213.032 43.114 212.466C43.8817 211.708 44.9224 211.282 46.0076 211.282C47.0927 211.282 48.1335 211.708 48.9012 212.466Z" fill="#004FFF"/>
<path d="M345.973 61.4874C345.973 63.4778 346.57 65.4236 347.689 67.0786C348.808 68.7336 350.398 70.0235 352.258 70.7852C354.119 71.5469 356.166 71.7462 358.141 71.3579C360.115 70.9696 361.93 70.0111 363.353 68.6036C364.777 67.1962 365.747 65.403 366.14 63.4508C366.533 61.4986 366.331 59.4751 365.56 57.6362C364.79 55.7972 363.485 54.2255 361.811 53.1197C360.136 52.0139 358.168 51.4236 356.154 51.4236C353.454 51.4236 350.865 52.4839 348.955 54.3713C347.046 56.2586 345.973 58.8183 345.973 61.4874ZM362.777 61.4874C362.777 62.7822 362.389 64.048 361.661 65.1247C360.933 66.2013 359.899 67.0404 358.689 67.5359C357.479 68.0314 356.147 68.161 354.862 67.9084C353.577 67.6558 352.397 67.0323 351.471 66.1167C350.545 65.2011 349.914 64.0346 349.659 62.7647C349.403 61.4947 349.534 60.1783 350.035 58.9821C350.537 57.7858 351.386 56.7633 352.475 56.044C353.564 55.3246 354.844 54.9406 356.154 54.9406C357.911 54.9406 359.596 55.6304 360.838 56.8582C362.08 58.086 362.777 59.7511 362.777 61.4874Z" fill="#004FFF"/>
<path d="M356.155 57.5043C356.952 57.5043 357.731 57.7379 358.394 58.1756C359.057 58.6133 359.573 59.2354 359.878 59.9632C360.183 60.691 360.263 61.4919 360.107 62.2645C359.952 63.0372 359.568 63.7469 359.004 64.304C358.441 64.861 357.723 65.2403 356.941 65.394C356.16 65.5477 355.349 65.4689 354.613 65.1674C353.877 64.8659 353.247 64.3554 352.805 63.7004C352.362 63.0454 352.126 62.2752 352.126 61.4874C352.126 60.431 352.55 59.4179 353.306 58.6709C354.062 57.924 355.086 57.5043 356.155 57.5043Z" fill="#004FFF"/>
<path opacity="0.2" d="M93.3752 0.150875L72.6273 0.150876L133.306 62.9279L110.158 129.243L0.000125489 76.7198L0.000126228 93.4364L63.9037 122.124L18.506 268.895L18.506 285.315L29.6516 285.315L53.6155 218.673L126.062 257.912L148.76 165.854L169.937 176.787L138.807 290.845L154.325 290.845L183.59 183.863L235.824 210.792L223.307 253.314L250.879 299.991L268.884 299.991L239.661 250.92L249.392 217.805L344.901 267.064L377.309 267.064L314.851 234.839L327.883 191.003L384.897 191.003L446 104.374L446 69.818L375.466 176.172L332.277 176.172L384.575 0.150862L368.929 0.150863L353.26 52.6733L263.774 36.6137L273.462 0.0449101L257.966 0.0449107L231.795 98.7127L146.445 54.9404L93.3752 0.150875ZM116.095 235.623L57.6236 203.843L77.5999 129.095L135.064 158.757L116.095 235.623ZM259.959 51.1055L349.081 66.9958L301.283 227.847L213.94 182.804L233.231 165.558L243.948 111.383L259.959 51.1055ZM228.237 113.692L219.47 157.782L199.666 175.431L123.597 136.192L146.145 71.6145L228.237 113.692Z" fill="#004FFF"/>
<path opacity="0.4" d="M65.3399 95.9375L106.771 117.125L123.597 62.907L92.2608 32.991C84.581 54.4912 75.5909 75.5118 65.3399 95.9375Z" fill="#407BFF"/>
<path opacity="0.4" d="M132.75 133.608L149.918 83.2674L203.203 108.438L186.591 159.541L132.75 133.608Z" fill="#407BFF"/>
<path opacity="0.4" d="M224.486 83.2251C223.05 82.8014 172.166 58.4999 172.166 58.4999L183.504 22.482L241.054 16.1259L224.486 83.2251Z" fill="#407BFF"/>
<path opacity="0.4" d="M303.404 156.956C302.761 156.193 250.634 139.476 250.634 139.476L264.523 61.487L334.119 74.4747L303.404 156.956Z" fill="#407BFF"/>
<path opacity="0.4" d="M273.613 198.927L281.458 175.409L303.406 187.168C303.406 187.168 297.661 211.936 295.968 211.936C294.275 211.936 273.613 198.927 273.613 198.927Z" fill="#407BFF"/>
<path opacity="0.4" d="M339.628 197.635C341.043 198.207 381.767 206.364 408.924 211.767L408.924 265.433L332.019 232.403L339.628 197.635Z" fill="#407BFF"/>
<path opacity="0.4" d="M390.426 0.151335L408.988 0.151335L408.988 44.4745L388.09 106.976C379.516 104.984 371.2 102.739 362.926 100.069L390.426 0.151335Z" fill="#407BFF"/>
<path opacity="0.4" d="M360.656 108.056L348.31 152.845L370.58 159.202L385.412 114.857C377.053 112.887 368.78 110.768 360.656 108.056Z" fill="#407BFF"/>
<path opacity="0.4" d="M301.262 0.150856L348.717 0.150854L339.629 41.3595L294.704 32.9695L301.262 0.150856Z" fill="#407BFF"/>
<path opacity="0.4" d="M210.317 246.767L180.096 233.695L190.941 197.296L222.513 211.936L210.317 246.767Z" fill="#407BFF"/>
<path opacity="0.4" d="M105.184 213.61L72.2836 195.664L86.5799 146.977L121.71 163.312L105.184 213.61Z" fill="#407BFF"/>
<path opacity="0.4" d="M29.6087 116.319C38.8466 120.832 50.571 126.659 51.3211 127.591C52.0713 128.523 36.639 188.715 29.6087 215.326L29.6087 116.319Z" fill="#407BFF"/>
<path opacity="0.4" d="M62.6384 233.716L133.134 267.065L53.8719 267.065L62.6384 233.716Z" fill="#407BFF"/>
<path d="M343.915 57.4826L343.915 57.8639C343.816 58.4132 343.501 58.9015 343.039 59.2228C342.578 59.5441 342.007 59.6725 341.45 59.5801L256.808 45.0882C253.636 55.3427 237.518 108.458 228.73 159.816C228.656 160.277 228.43 160.702 228.087 161.023L201.273 185.452C200.952 185.746 200.549 185.936 200.116 185.996C199.683 186.057 199.241 185.985 198.851 185.791L143.637 157.443L123.104 247.148C123.029 247.468 122.881 247.767 122.669 248.02C122.458 248.274 122.19 248.475 121.887 248.609C121.583 248.742 121.253 248.804 120.921 248.79C120.589 248.775 120.265 248.685 119.974 248.526L64.2465 218.355C63.9988 218.216 63.7812 218.03 63.6062 217.808C63.4313 217.586 63.3023 217.332 63.2266 217.06C63.151 216.789 63.1302 216.505 63.1654 216.226C63.2007 215.946 63.2912 215.676 63.432 215.431C63.5727 215.187 63.7609 214.972 63.9857 214.799C64.2105 214.626 64.4676 214.498 64.7422 214.423C65.0169 214.349 65.3038 214.328 65.5865 214.363C65.8691 214.398 66.1422 214.487 66.3899 214.626L119.631 243.547L140.165 153.904C140.236 153.587 140.38 153.29 140.587 153.036C140.793 152.782 141.055 152.579 141.354 152.441C141.652 152.304 141.979 152.237 142.308 152.244C142.637 152.252 142.96 152.334 143.252 152.485L199.558 181.426L224.657 158.481C234.431 101.53 253.121 42.7152 253.314 42.122C253.472 41.6365 253.802 41.2235 254.243 40.9589C254.684 40.6942 255.206 40.5957 255.715 40.6813L342.115 55.4062C342.614 55.4863 343.07 55.7387 343.399 56.1188C343.729 56.4989 343.912 56.982 343.915 57.4826Z" fill="#004FFF"/>
<path d="M388.841 28.8629C380.129 20.358 368.318 15.5807 356.003 15.5807C343.688 15.5807 331.877 20.358 323.165 28.8629C314.626 37.3532 309.841 48.7811 309.841 60.6852C309.841 72.5892 314.626 84.0171 323.165 92.5074L355.732 124.33L388.298 92.5074C396.91 84.0868 401.792 72.6979 401.894 60.7937C401.995 48.8895 397.308 37.4226 388.841 28.8629ZM370.604 75.2173C367.717 78.0314 364.042 79.9464 360.042 80.7205C356.043 81.4945 351.898 81.0928 348.132 79.566C344.366 78.0393 341.147 75.4561 338.883 72.1427C336.619 68.8294 335.41 64.9346 335.41 60.9504C335.41 56.9662 336.619 53.0714 338.883 49.758C341.147 46.4447 344.366 43.8615 348.132 42.3347C351.898 40.808 356.043 40.4063 360.042 41.1803C364.042 41.9543 367.717 43.8693 370.604 46.6834C372.576 48.57 374.143 50.8226 375.213 53.3089C376.283 55.7952 376.835 58.4653 376.835 61.1625C376.835 63.8597 376.283 66.5298 375.213 69.0162C374.143 71.5025 372.576 73.755 370.604 75.6417V75.2173Z" fill="#004FFF"/>
</svg>
