<svg width="450" height="309" viewBox="0 0 450 309" fill="none" xmlns="http://www.w3.org/2000/svg">
<path d="M15.3315 68.1228C35.7253 30.4388 87.0283 -13.5519 157.409 4.77164C227.789 23.0952 275.342 61.8587 267.551 129.301C259.76 196.743 218.817 252.779 130.625 254.419C42.4336 256.06 -29.3905 150.756 15.3315 68.1228Z" fill="#004FFF"/>
<path d="M57.1707 215.564L68.245 218.974L60.0153 209.244C64.5268 204.209 67.1098 197.731 67.3039 190.963" stroke="#407BFF" stroke-linecap="round" stroke-linejoin="round"/>
<path d="M43.7333 219.855C47.4452 218.666 50.9482 216.9 54.1142 214.62" stroke="#407BFF" stroke-linecap="round" stroke-linejoin="round"/>
<path d="M1 199.187C4.26216 214.961 21.6273 224.677 39.7921 220.898" stroke="#407BFF" stroke-linecap="round" stroke-linejoin="round"/>
<path d="M3.64779 181.403C2.95062 182.732 2.35909 184.114 1.87872 185.537" stroke="#407BFF" stroke-linecap="round" stroke-linejoin="round"/>
<path d="M66.7743 185.494C63.5193 169.72 46.147 160.005 27.9893 163.79C19.744 165.415 12.3131 169.854 6.95862 176.354" stroke="#407BFF" stroke-linecap="round" stroke-linejoin="round"/>
<path d="M47.5048 179.713C42.2755 173.996 35.1497 177.959 32.1847 183.761C27.2879 179.5 19.1998 178.456 16.4683 185.721C11.8546 197.958 27.6347 205.423 34.9374 208.122C35.7653 208.434 36.4446 208.697 37.0107 208.889C37.4707 208.498 38.0085 208.001 38.6595 207.404C44.4337 202.17 56.3219 189.358 47.5048 179.713Z" stroke="#407BFF" stroke-linecap="round" stroke-linejoin="round"/>
<path d="M209.618 25.3962L198.925 20.929L206.178 31.4117C201.221 35.9857 198.041 42.1768 197.206 48.883" stroke="#407BFF" stroke-linecap="round" stroke-linejoin="round"/>
<path d="M223.388 22.4062C219.582 23.2346 215.926 24.6531 212.555 26.6107" stroke="#407BFF" stroke-linecap="round" stroke-linejoin="round"/>
<path d="M263.956 47.1075C262.222 31.078 245.869 19.7145 227.428 21.7529" stroke="#407BFF" stroke-linecap="round" stroke-linejoin="round"/>
<path d="M259.617 64.5503C260.426 63.2939 261.136 61.976 261.74 60.6086" stroke="#407BFF" stroke-linecap="round" stroke-linejoin="round"/>
<path d="M197.206 54.3801C198.939 70.3955 215.293 81.7447 233.733 79.7348C242.095 78.9103 249.915 75.2093 255.868 69.2591" stroke="#407BFF" stroke-linecap="round" stroke-linejoin="round"/>
<path d="M238.336 64.1811C246.513 59.7883 249.593 49.5749 245.216 41.3688C240.839 33.1627 230.663 30.0713 222.487 34.464C214.311 38.8567 211.231 49.0701 215.607 57.2762C219.984 65.4824 230.16 68.5738 238.336 64.1811Z" stroke="#407BFF" stroke-linecap="round" stroke-linejoin="round"/>
<path d="M224.033 51.454L229.057 56.2125L237.435 41.7312" stroke="#407BFF" stroke-linecap="round" stroke-linejoin="round"/>
<path opacity="0.2" d="M126.208 174.671C126.208 174.671 123.163 211.648 127.568 220.618C131.972 229.587 134.179 290.873 132.203 298.581C132.203 298.581 146.383 302.169 151.993 297.07C157.603 291.972 166.232 296.881 180.446 291.92C194.659 286.959 184.405 176.842 184.405 176.842L184.841 136.783L161.4 115.823L126.208 174.671Z" fill="black" fill-opacity="0.7"/>
<path d="M145.109 192.456C145.02 192.72 144.878 192.963 144.69 193.168C141.662 196.044 128.74 199.237 117.639 201.537C108.446 203.451 100.535 204.747 100.535 204.747C100.535 204.747 94.4459 153.959 94.4459 148.62C94.4459 143.281 84.6281 56.8464 84.6281 56.8464L108.164 55.8249L139.387 54.4688C139.387 54.4688 139.576 56.7777 139.892 60.8119C141.953 86.5106 149.034 182.319 145.109 192.456Z" fill="#F4BEA5"/>
<path opacity="0.2" d="M145.108 192.456L117.639 198.095L107.265 200.232C104.451 197.46 102.305 197.409 102.305 197.409L101.449 189.641L100.107 176.929L88.2877 65.0867C90.8534 63.3099 92.1191 59.4216 92.1191 59.4216L107.941 58.8465L135.35 57.8423L139.874 60.7778C141.952 86.5109 149.034 182.319 145.108 192.456Z" fill="black" fill-opacity="0.7"/>
<path d="M145.108 192.456L117.639 198.095L107.265 200.232C104.451 197.46 102.305 197.409 102.305 197.409L101.449 189.641L100.107 176.929L88.2877 65.0867C90.8534 63.3099 92.1191 59.4216 92.1191 59.4216L107.941 58.8465L135.35 57.8423L139.874 60.7778C141.952 86.5109 149.034 182.319 145.108 192.456Z" stroke="#A7542A" stroke-linecap="round" stroke-linejoin="round"/>
<path d="M103.759 159.53L112.927 159.513L112.936 162.388L110.387 163.298L104.512 163.942L103.759 159.53Z" fill="#F4BEA5" stroke="#A7542A" stroke-linecap="round" stroke-linejoin="round"/>
<path d="M104.324 165.452L111.063 165.221L112.79 166.045L112.705 169.864L104.837 169.95L104.324 165.452Z" fill="#F4BEA5" stroke="#A7542A" stroke-linecap="round" stroke-linejoin="round"/>
<path d="M105.401 171.555L113.098 170.997L113.012 173.89L109.292 175.212L105.358 174.988L105.401 171.555Z" fill="#F4BEA5" stroke="#A7542A" stroke-linecap="round" stroke-linejoin="round"/>
<path d="M105.863 176.43L112.08 176.748L112.645 178.345L111.738 180.104L106.179 180.465L105.221 177.744L105.863 176.43Z" fill="#F4BEA5" stroke="#A7542A" stroke-linecap="round" stroke-linejoin="round"/>
<path d="M113.029 182.019L113.884 184.516C114.02 184.782 114.091 185.076 114.091 185.375C114.091 185.673 114.02 185.968 113.884 186.233C113.725 186.415 113.522 186.554 113.294 186.635C113.066 186.716 112.822 186.737 112.584 186.697C112.105 186.654 111.635 186.491 111.156 186.465C109.71 186.405 108.385 187.598 106.965 187.323C106.409 185.778 105.007 183.512 106.905 182.817C107.256 182.705 113.234 182.585 113.029 182.019Z" fill="#F4BEA5" stroke="#A7542A" stroke-linecap="round" stroke-linejoin="round"/>
<path d="M113.004 189.048C113.14 189.642 113.237 190.244 113.295 190.85C113.382 191.234 113.369 191.633 113.258 192.01C113.148 192.388 112.942 192.73 112.662 193.005C112.297 193.206 111.889 193.315 111.473 193.322L106.53 193.769C106.458 192.832 106.444 191.892 106.487 190.953C106.778 189.838 106.573 189.932 107.625 189.477C109.293 188.765 111.294 189.898 113.004 189.048Z" fill="#F4BEA5" stroke="#A7542A" stroke-linecap="round" stroke-linejoin="round"/>
<path d="M95.0275 67.6274C95.0275 67.6274 96.8918 85.7127 96.9774 89.292" stroke="#A7542A" stroke-linecap="round" stroke-linejoin="round"/>
<path d="M99.0458 67.8247L99.9182 77.79" stroke="#A7542A" stroke-linecap="round" stroke-linejoin="round"/>
<path d="M112.979 64.0566L114.107 75.7387L115.69 75.8932L115.176 64.1682L112.979 64.0566Z" fill="#F4BEA5" stroke="#A7542A" stroke-linecap="round" stroke-linejoin="round"/>
<path opacity="0.2" d="M145.108 192.456C145.019 192.72 144.876 192.963 144.689 193.168C141.661 196.044 128.739 199.237 117.638 201.537V193.812L101.483 189.657L99.0458 189.031L100.141 176.945L104.323 130.767L107.974 58.8806L108.128 55.8249L139.386 54.4688C139.386 54.4688 139.574 56.7777 139.891 60.8119C141.952 86.5106 149.033 182.319 145.108 192.456Z" fill="black" fill-opacity="0.7"/>
<path d="M145.109 192.456C145.02 192.72 144.878 192.963 144.69 193.168C141.662 196.044 128.74 199.237 117.639 201.537C108.446 203.451 100.535 204.747 100.535 204.747C100.535 204.747 94.4459 153.959 94.4459 148.62C94.4459 143.281 84.6281 56.8464 84.6281 56.8464L108.164 55.8249L139.387 54.4688C139.387 54.4688 139.576 56.7777 139.892 60.8119C141.953 86.5106 149.034 182.319 145.109 192.456Z" stroke="#A7542A" stroke-linecap="round" stroke-linejoin="round"/>
<path d="M161.675 307.705C161.872 305.894 159.032 279.912 158.981 277.088C158.844 269.363 156.663 259.226 156.663 259.226C153.619 251.415 151.25 233.415 143.125 221.871C135.001 210.326 135.009 196.747 133.658 185.219C132.307 173.692 132.64 174.688 132.982 164.456C133.229 156.771 132.889 149.077 131.965 141.444C131.289 134.646 129.938 122.689 131.965 117.119C133.992 111.548 139.294 110.252 145.101 115.831C150.908 121.41 153.277 144.285 153.277 147.109C153.277 149.933 153.277 158.757 155.312 162.156C155.312 162.156 166.815 156.25 166.815 154.619C166.815 152.989 166.473 138.577 168.166 137.805L161.401 115.831L174.229 111.256C176.644 113.43 178.73 115.946 180.421 118.724C181.869 121.024 183.081 123.466 184.039 126.011C189.452 140.423 198.15 150.474 199.946 154.619C201.742 158.765 199.946 191.691 199.946 197.811C199.946 203.931 196.012 232.145 196.114 236.892C196.191 240.325 198.5 253.097 200.801 262.891C201.656 266.667 206.847 294.031 207.643 296.203L161.675 307.705Z" fill="#F7D4C2"/>
<path opacity="0.7" d="M256.671 243.054C263.507 263.209 216.421 292.523 216.421 292.523C171.932 317.96 110.784 295.901 97.1519 285.662C83.5196 275.424 70.7601 279.976 42.5905 271.683" stroke="#A7542A"/>
<path opacity="0.4" d="M171.801 136.354C171.715 138.199 173.913 152.911 173.913 152.911C175.435 156.577 167.123 169.074 167.123 169.074C165.327 170.087 164.557 176.37 164.557 176.37C158.93 175.117 146.042 162.113 146.042 162.113C146.042 162.113 144.519 167.443 142.809 180.636C141.098 193.829 151.943 225.167 156.561 246.805C161.179 268.444 158.981 277.062 158.981 277.062C158.844 269.337 156.663 259.2 156.663 259.2C153.619 251.389 151.25 233.389 143.125 221.845C135.001 210.3 135.009 196.747 133.658 185.219C132.307 173.692 132.64 174.688 132.982 164.456C133.229 156.771 132.889 149.077 131.965 141.444C131.289 134.646 129.938 122.689 131.965 117.119C133.992 111.548 139.294 110.252 145.101 115.831C150.908 121.41 153.277 144.285 153.277 147.109C153.277 149.933 153.277 158.757 155.312 162.156C155.312 162.156 166.815 156.25 166.815 154.62C166.815 152.989 166.473 138.577 168.166 137.805L161.401 115.831L174.229 111.256C176.644 113.43 178.73 115.946 180.421 118.724C176.273 127.05 171.886 135.204 171.801 136.354Z" fill="#F4BEA5"/>
<path opacity="0.4" d="M193.369 239.166C193.933 234.016 195.618 221.776 196.687 214.137C195.379 220.102 193.266 223.124 193.266 223.124C193.266 223.124 196.909 179.348 197.269 176.679C197.628 174.01 201.305 162.01 199.954 154.577C201.75 158.714 199.954 191.648 199.954 197.768C199.954 203.888 196.02 232.102 196.123 236.849C196.2 240.282 199.869 262.161 202.169 271.955C197.226 264.745 192.804 244.342 193.369 239.166Z" fill="#F4BEA5"/>
<path d="M207.625 296.16C204.922 288.349 196.242 241.57 196.139 236.849C196.037 232.128 199.971 203.88 199.971 197.769C199.971 191.657 201.767 158.714 199.971 154.577C198.175 150.44 189.477 140.38 184.064 125.969C182.017 120.333 178.653 115.273 174.254 111.214L161.426 115.789L168.191 137.762C166.48 138.535 166.84 152.946 166.84 154.577C166.84 156.208 155.337 162.113 155.337 162.113C153.302 158.68 153.302 149.89 153.302 147.067C153.302 144.243 150.933 121.359 145.126 115.789C139.319 110.218 134.008 111.497 131.99 117.076C129.971 122.655 131.314 134.603 131.99 141.401C132.915 149.043 133.255 156.745 133.007 164.439C132.665 174.671 132.323 173.658 133.683 185.203C135.043 196.747 135.034 210.326 143.15 221.871C151.266 233.416 153.644 251.415 156.688 259.226C156.688 259.226 162.435 300.916 161.7 307.705" stroke="#A7542A" stroke-linecap="round" stroke-linejoin="round"/>
<path d="M155.311 162.114C155.311 162.114 157.338 171.615 161.905 176.371" stroke="#A7542A" stroke-linecap="round" stroke-linejoin="round"/>
<path d="M156.543 166.448C156.543 166.448 165.095 169.074 168.67 169.237" stroke="#A7542A" stroke-linecap="round" stroke-linejoin="round"/>
<path d="M166.813 154.577C166.813 154.577 172.903 151.753 176.794 153.452" stroke="#A7542A" stroke-linecap="round" stroke-linejoin="round"/>
<path d="M168.165 137.762C168.165 137.762 172.903 137.324 173.912 134.947" stroke="#A7542A" stroke-linecap="round" stroke-linejoin="round"/>
<path d="M144.689 224.291C144.689 224.291 153.788 235.63 156.491 241.398" stroke="#A7542A" stroke-linecap="round" stroke-linejoin="round"/>
<path d="M197.602 174.67C196.079 183.674 194.044 208.292 193.368 212.703" stroke="#A7542A" stroke-linecap="round" stroke-linejoin="round"/>
<path d="M200.51 157.692C200.766 165.847 198.799 170.087 198.799 170.087" stroke="#A7542A" stroke-linecap="round" stroke-linejoin="round"/>
<path d="M130.562 43.5933L193.266 60.1936C193.266 60.1936 171.227 127.324 166.754 135.65L159.28 194.172C159.28 194.172 119.221 192.404 100.8 186.816C100.8 186.816 112.448 125.874 113.072 117.745C113.697 109.617 130.562 43.5933 130.562 43.5933Z" fill="#F4BEA5"/>
<path d="M117.075 114.141L130.895 54.8379C130.895 54.8379 136.839 51.8766 139.139 49.1729L184.064 61.9965C184.064 61.9965 184.201 66.4169 186.775 69.2494L164.103 134.818L158.604 183.151C158.604 183.151 151.292 183.735 150.591 189.16C150.591 189.16 126.884 190.447 110.986 186.241C110.986 186.241 109.113 180.379 106.248 176.671L117.075 114.141Z" stroke="#A7542A" stroke-linecap="round" stroke-linejoin="round"/>
<path d="M128.578 117.222C128.578 117.222 132.657 101.772 147.025 104.545C161.392 107.317 153.276 126.355 153.276 126.355C153.276 126.355 153.362 141.719 141.705 139.599C131.597 137.762 126.209 132.192 128.578 117.222Z" fill="#F4BEA5" stroke="#A7542A" stroke-linecap="round" stroke-linejoin="round"/>
<path d="M136.359 60.4773C136.359 60.4773 132.014 78.1334 130.894 81.5324" stroke="#A7542A" stroke-linecap="round" stroke-linejoin="round"/>
<path d="M140.081 62.0051L137.549 71.6872" stroke="#A7542A" stroke-linecap="round" stroke-linejoin="round"/>
<path d="M171.8 68.7949L180.447 71.8506L179.497 74.5716H176.795L171.039 73.2154L171.8 68.7949Z" fill="#F4BEA5" stroke="#A7542A" stroke-linecap="round" stroke-linejoin="round"/>
<path d="M170.364 74.5713L176.795 76.6056L178.147 77.9617L176.795 81.5324L169.346 78.9832L170.364 74.5713Z" fill="#F4BEA5" stroke="#A7542A" stroke-linecap="round" stroke-linejoin="round"/>
<path d="M169.346 80.6826L176.795 82.7426L175.743 85.4378H171.8L168.166 83.91L169.346 80.6826Z" fill="#F4BEA5" stroke="#A7542A" stroke-linecap="round" stroke-linejoin="round"/>
<path d="M168.166 85.4375L173.913 87.8151V89.506L172.477 90.8708L167.123 89.343V86.4503L168.166 85.4375Z" fill="#F4BEA5" stroke="#A7542A" stroke-linecap="round" stroke-linejoin="round"/>
<path d="M173.066 93.1028V95.7465C173.111 96.0377 173.087 96.3353 172.996 96.6155C172.905 96.8956 172.751 97.1507 172.544 97.3602C172.332 97.4766 172.094 97.5377 171.852 97.5377C171.61 97.5377 171.371 97.4766 171.159 97.3602C170.723 97.1542 170.304 96.8452 169.893 96.6649C168.551 96.1242 166.9 96.8023 165.617 96.0813C165.617 94.4418 165.044 91.8411 167.063 91.7896C167.396 91.8153 173.066 93.7037 173.066 93.1028Z" fill="#F4BEA5" stroke="#A7542A" stroke-linecap="round" stroke-linejoin="round"/>
<path d="M170.696 99.7206C170.632 100.326 170.523 100.925 170.371 101.515C170.183 102.278 169.815 103.128 169.054 103.334C168.644 103.403 168.224 103.367 167.831 103.231L163.025 101.961C163.257 101.058 163.543 100.169 163.88 99.3C164.53 98.3472 164.308 98.3644 165.445 98.2872C167.292 98.2099 168.798 99.9523 170.696 99.7206Z" fill="#F4BEA5" stroke="#A7542A" stroke-linecap="round" stroke-linejoin="round"/>
<path d="M154.465 63.198L151.583 74.571L153.02 75.2491L156.492 64.0392L154.465 63.198Z" fill="#F4BEA5" stroke="#A7542A" stroke-linecap="round" stroke-linejoin="round"/>
<path d="M118.349 139.573L127.226 141.882L126.508 144.663L123.814 144.904L117.964 144.037L118.349 139.573Z" fill="#F4BEA5" stroke="#A7542A" stroke-linecap="round" stroke-linejoin="round"/>
<path d="M117.409 145.453L123.985 146.929L125.456 148.165L124.413 151.839L116.776 149.934L117.409 145.453Z" fill="#F4BEA5" stroke="#A7542A" stroke-linecap="round" stroke-linejoin="round"/>
<path d="M116.922 151.633L124.516 153.041L123.695 155.813L119.77 156.157L116.015 154.947L116.922 151.633Z" fill="#F4BEA5" stroke="#A7542A" stroke-linecap="round" stroke-linejoin="round"/>
<path d="M116.143 156.465L122.078 158.345L122.224 160.036L120.907 161.512L115.442 160.448L115.194 157.573L116.143 156.465Z" fill="#F4BEA5" stroke="#A7542A" stroke-linecap="round" stroke-linejoin="round"/>
<path d="M121.676 163.684L121.907 166.319C121.977 166.606 121.979 166.906 121.912 167.194C121.845 167.482 121.711 167.75 121.522 167.976C121.321 168.11 121.089 168.19 120.848 168.21C120.607 168.229 120.365 168.187 120.145 168.088C119.692 167.924 119.29 167.65 118.819 167.512C117.443 167.083 115.852 167.899 114.543 167.289C114.389 165.658 113.611 163.118 115.612 162.92C115.92 162.903 121.727 164.285 121.676 163.684Z" fill="#F4BEA5" stroke="#A7542A" stroke-linecap="round" stroke-linejoin="round"/>
<path d="M119.888 170.482C119.876 171.107 119.819 171.729 119.717 172.345C119.589 173.118 119.298 174.002 118.563 174.268C118.159 174.371 117.735 174.371 117.331 174.268L112.439 173.409C112.604 172.487 112.824 171.576 113.098 170.68C113.662 169.676 113.44 169.71 114.569 169.538C116.365 169.272 118.007 170.877 119.888 170.482Z" fill="#F4BEA5" stroke="#A7542A" stroke-linecap="round" stroke-linejoin="round"/>
<path d="M155.312 178.817C155.312 178.817 157.348 156.036 157.348 153.744" stroke="#A7542A" stroke-linecap="round" stroke-linejoin="round"/>
<path d="M151.248 177.795C151.248 177.795 152.104 165.95 152.257 163.89" stroke="#A7542A" stroke-linecap="round" stroke-linejoin="round"/>
<path d="M135.385 169.238L132.64 182.722H135.385L137.378 169.238H135.385Z" fill="#F4BEA5" stroke="#A7542A" stroke-linecap="round" stroke-linejoin="round"/>
<path opacity="0.2" d="M166.9 135.316C160.965 134.072 155.671 132.243 151.754 129.608C151.754 129.608 154.594 137.797 164.66 151.753L159.246 194.173C159.246 194.173 133.102 193.022 113.347 189.632C119.419 172.465 130.451 139.934 129.143 133.488C127.372 124.638 133.624 114.192 133.624 114.192C153.388 110.622 172.553 95.6264 185.706 82.9487C179.01 102.819 169.868 129.428 166.9 135.316Z" fill="black" fill-opacity="0.7"/>
<path d="M130.562 43.5933L193.266 60.1936C193.266 60.1936 171.227 127.324 166.754 135.65L159.28 194.172C159.28 194.172 119.221 192.404 100.8 186.816C100.8 186.816 112.448 125.874 113.072 117.745C113.697 109.617 130.562 43.5933 130.562 43.5933Z" stroke="#A7542A" stroke-linecap="round" stroke-linejoin="round"/>
<path d="M165.327 177.229L156.492 241.398C154.525 237.201 149.163 230.042 146.392 226.463C145.366 225.124 144.682 224.291 144.682 224.291L143.117 221.871C135.001 210.326 135.001 196.747 133.65 185.203C132.298 173.658 132.632 174.671 132.974 164.439C133.223 156.76 132.885 149.072 131.965 141.444C131.289 134.646 129.938 122.69 131.965 117.119C132.957 114.389 134.744 112.69 136.985 112.329C139.226 111.969 142.116 112.999 145.101 115.832C150.908 121.402 153.277 144.286 153.277 147.109C153.277 149.933 153.277 158.757 155.312 162.156C155.312 162.113 160.768 172.473 165.327 177.229Z" fill="#F6D4C2"/>
<path opacity="0.4" d="M142.45 217.296C144.297 219.665 145.554 223.081 146.392 226.463C145.366 225.124 144.682 224.291 144.682 224.291L143.117 221.871C135.001 210.326 135.001 196.747 133.65 185.203C132.298 173.658 132.632 174.671 132.974 164.439C133.223 156.76 132.885 149.072 131.965 141.444C131.289 134.646 129.938 122.69 131.965 117.119C132.957 114.389 134.744 112.69 136.985 112.329C141.261 113.548 145.537 117.917 147.025 125.393C149.591 137.942 138.02 127.805 135.343 138.44C132.666 149.075 136.557 151.942 138.157 154.62C139.756 157.298 137.712 163.203 135.343 171.134C132.974 179.065 137.378 210.781 142.45 217.296Z" fill="#F4BEA5"/>
<path d="M165.326 177.228C160.759 172.473 155.311 162.113 155.311 162.113C153.276 158.68 153.276 149.89 153.276 147.066C153.276 144.242 150.907 121.359 145.1 115.788C139.293 110.218 133.982 111.497 131.964 117.076C129.945 122.655 131.288 134.603 131.964 141.401C132.889 149.043 133.23 156.745 132.981 164.439C132.639 174.671 132.297 173.658 133.657 185.202C135.017 196.747 135.008 210.326 143.124 221.871L144.689 224.291C144.689 224.291 153.789 235.63 156.491 241.398" stroke="#A7542A" stroke-linecap="round" stroke-linejoin="round"/>
<path d="M135.385 150.07C135.385 150.07 143.142 146.045 147.024 146.388" stroke="#A7542A" stroke-linecap="round" stroke-linejoin="round"/>
<path d="M406.705 33.3932L311.426 75.4633C307.786 77.0703 306.146 81.3469 307.762 85.0153L333.533 143.508C335.149 147.176 339.409 148.847 343.049 147.24L438.328 105.17C441.967 103.563 443.607 99.2866 441.991 95.6182L416.221 37.1256C414.605 33.4572 410.344 31.7861 406.705 33.3932Z" stroke="#F9C62E" stroke-linecap="round" stroke-linejoin="round"/>
<path d="M311.936 94.6075L420.47 46.5248" stroke="#F9C62E" stroke-linecap="round" stroke-linejoin="round"/>
<path d="M416.938 68.8719L399.438 76.5991L410.628 101.998L428.128 94.2709L416.938 68.8719Z" stroke="#F9C62E" stroke-linecap="round" stroke-linejoin="round"/>
<path d="M408.017 78.9438C410.631 73.2831 417.798 74.6746 420.17 89.4375L426.577 90.7508L428.098 94.2142L410.617 101.948L408.57 97.3189L414.733 92.7766C414.733 92.7766 405.561 84.2807 408.017 78.9438Z" stroke="#F9C62E" stroke-linecap="round" stroke-linejoin="round"/>
<path d="M376.977 121.998C376.977 121.998 390.228 118.565 385.725 116.915C381.222 115.266 379.932 112.723 383.141 111.814C386.35 110.905 393.422 115.7 391.971 112.005C390.521 108.31 393.516 110.164 394.027 110.293C394.539 110.421 397.943 107.849 398.247 108.249C398.552 108.649 398.627 109.973 410.548 104.705" stroke="#F9C62E" stroke-linecap="round" stroke-linejoin="round"/>
<path d="M324.674 103.838L377.823 80.2871" stroke="#F9C62E" stroke-linecap="round" stroke-linejoin="round"/>
<path d="M327.333 109.889L358.64 96.0145" stroke="#F9C62E" stroke-linecap="round" stroke-linejoin="round"/>
<path d="M332.03 120.564L375.699 101.216" stroke="#F9C62E" stroke-linecap="round" stroke-linejoin="round"/>
<path d="M335.065 75.1074L388.359 51.4848" stroke="#F9C62E" stroke-linecap="round" stroke-linejoin="round"/>
</svg>
