<svg width="286" height="233" viewBox="0 0 286 233" fill="none" xmlns="http://www.w3.org/2000/svg">
<path d="M217.896 36.2601C217.896 36.2601 245.665 21.1392 249.71 22.6007C253.756 24.0622 246.169 53.8076 245.16 55.7562C244.151 57.7049 217.896 36.2601 217.896 36.2601Z" fill="#457FFF" stroke="#407BFF" stroke-linecap="round" stroke-linejoin="round"/>
<path d="M248.19 26.5063C248.19 26.5063 246.987 28.3145 245.454 30.919C242.776 35.4721 239.109 42.4611 239.109 46.4989C239.109 52.8321 243.145 52.3449 244.154 47.4358L247.685 33.2892" stroke="#407BFF" stroke-linecap="round" stroke-linejoin="round"/>
<path d="M14.7871 115.593C22.4016 115.593 28.5743 107.834 28.5743 98.2614C28.5743 88.6892 22.4016 80.9294 14.7871 80.9294C7.17272 80.9294 1 88.6892 1 98.2614C1 107.834 7.17272 115.593 14.7871 115.593Z" fill="#004FFF" stroke="#407BFF" stroke-linecap="round" stroke-linejoin="round"/>
<path d="M139.753 222.63C212.307 222.63 271.124 174.548 271.124 115.237C271.124 55.9261 212.307 7.84497 139.753 7.84497C67.1991 7.84497 8.38239 55.9261 8.38239 115.237C8.38239 174.548 67.1991 222.63 139.753 222.63Z" fill="#457FFF" stroke="#407BFF" stroke-linecap="round" stroke-linejoin="round"/>
<path d="M225.078 189.267C202.762 206.431 172.782 216.952 139.755 216.952C80.8123 216.952 31.4367 183.44 18.5907 138.452" fill="#004FFF"/>
<path d="M225.078 189.267C202.762 206.431 172.782 216.952 139.755 216.952C80.8123 216.952 31.4367 183.44 18.5907 138.452" stroke="#407BFF" stroke-width="2" stroke-linecap="round" stroke-linejoin="round"/>
<path d="M15.4081 118.609C15.3596 117.494 15.3402 116.37 15.3402 115.236C15.3434 102.972 18.0074 90.845 23.1604 79.6357" fill="#EAB196"/>
<path d="M15.4081 118.609C15.3596 117.494 15.3402 116.37 15.3402 115.236C15.3434 102.972 18.0074 90.845 23.1604 79.6357" stroke="#407BFF" stroke-width="2" stroke-linecap="round" stroke-linejoin="round"/>
<path d="M100.305 19.6682C126.157 12.6106 153.528 12.6106 179.38 19.6682" stroke="#407BFF" stroke-width="5" stroke-linecap="round" stroke-linejoin="round"/>
<path d="M263.848 82.0915C263.848 82.0915 280.517 76.7233 283.039 79.6557C285.562 82.5881 285.562 116.709 283.544 123.051C281.526 129.394 267.884 127.923 258.318 121.102C255.575 119.243 253.355 116.753 251.858 113.858C250.36 110.963 249.633 107.754 249.741 104.52" fill="#457FFF"/>
<path d="M263.848 82.0915C263.848 82.0915 280.517 76.7233 283.039 79.6557C285.562 82.5881 285.562 116.709 283.544 123.051C281.526 129.394 267.884 127.923 258.318 121.102C255.575 119.243 253.355 116.753 251.858 113.858C250.36 110.963 249.633 107.754 249.741 104.52" stroke="#407BFF" stroke-linecap="round" stroke-linejoin="round"/>
<path d="M253.748 103.057L243.648 104.519" stroke="#407BFF" stroke-linecap="round" stroke-linejoin="round"/>
<path d="M251.225 113.785C251.225 113.785 248.702 130.855 251.729 131.342C254.757 131.829 259.812 123.051 259.812 123.051C259.812 123.051 252.739 115.247 251.225 113.785Z" fill="#263238" stroke="#407BFF" stroke-linecap="round" stroke-linejoin="round"/>
<path d="M242.037 73.8092C243.007 77.3225 242.416 80.5078 240.795 80.9106C239.175 81.3135 237.108 78.784 236.167 75.2895C235.226 71.795 235.789 68.5909 237.409 68.1881C239.029 67.7852 241.106 70.2866 242.037 73.8092Z" fill="#263238"/>
<path d="M188.974 26.5539C188.974 26.5539 220.749 -4.12827 226.949 1.85827C233.149 7.84481 230.83 34.0394 230.83 37.7869V48.261" fill="#457FFF"/>
<path d="M188.974 26.5539C188.974 26.5539 220.749 -4.12827 226.949 1.85827C233.149 7.84481 230.83 34.0394 230.83 37.7869V48.261" stroke="#407BFF" stroke-linecap="round" stroke-linejoin="round"/>
<path d="M227.997 8.46228C227.997 8.46228 228.502 0.658235 224.96 5.53928C221.419 10.4203 211.328 44.0536 214.355 47.9603C217.383 51.867 225.998 49.909 227.997 42.5921C229.996 35.2752 228.502 14.3083 228.502 14.3083" stroke="#407BFF" stroke-linecap="round" stroke-linejoin="round"/>
<path d="M54.0635 186.42L71.4502 231.793H90.6416L99.2186 208.38" fill="#457FFF"/>
<path d="M54.0635 186.42L71.4502 231.793H90.6416L99.2186 208.38" stroke="#407BFF" stroke-linecap="round" stroke-linejoin="round"/>
<path d="M214.357 192.294L197.698 231.792H178.506L169.92 208.38" fill="#457FFF"/>
<path d="M214.357 192.294L197.698 231.792H178.506L169.92 208.38" stroke="#407BFF" stroke-linecap="round" stroke-linejoin="round"/>
<path d="M133.341 168.432V158.96C126.103 158.685 120.693 156.446 117.109 152.243C113.526 148.039 111.585 141.762 111.288 133.412L126.162 130.967C126.225 133.828 126.596 136.676 127.268 139.464C127.659 141.367 128.589 143.128 129.955 144.551C130.572 145.118 131.3 145.559 132.097 145.849C132.893 146.138 133.742 146.271 134.593 146.237C136.766 146.237 138.26 145.563 139.075 144.195C139.904 142.766 140.323 141.148 140.288 139.511C140.398 136.433 139.531 133.396 137.804 130.807C135.873 128.171 133.589 125.793 131.013 123.734L122.048 116.295C120.092 114.542 118.26 112.665 116.566 110.674C114.903 108.712 113.591 106.496 112.685 104.116C111.677 101.336 111.194 98.4042 111.259 95.4595C111.259 89.0889 113.141 84.1204 116.905 80.5541C120.67 76.9878 125.712 74.9673 132.032 74.4926V65.5269H137.174V74.5863C140.449 74.65 143.655 75.5069 146.498 77.0783C148.802 78.4224 150.71 80.3162 152.038 82.5777C153.322 84.8419 154.244 87.2802 154.774 89.8103C155.31 92.3056 155.654 94.8358 155.802 97.3801L140.725 99.5161C140.682 97.2809 140.471 95.0515 140.094 92.8457C139.856 91.2028 139.188 89.6455 138.154 88.3207C137.632 87.7568 136.976 87.3233 136.243 87.0574C135.509 86.7915 134.72 86.701 133.943 86.7936C133.063 86.7815 132.193 86.9796 131.411 87.3702C130.629 87.7609 129.959 88.3319 129.46 89.0327C128.446 90.4357 127.91 92.1091 127.927 93.82C127.8 96.5011 128.621 99.1443 130.256 101.315C131.86 103.278 133.622 105.117 135.524 106.814L144.257 114.141C146.606 116.188 148.78 118.416 150.757 120.802C152.734 123.193 154.333 125.855 155.502 128.699C156.745 131.86 157.348 135.222 157.277 138.602C157.323 142.001 156.546 145.363 155.007 148.42C153.537 151.337 151.281 153.819 148.477 155.606C145.457 157.491 141.993 158.61 138.406 158.857V168.432H133.341Z" fill="#004FFF"/>
<path opacity="0.35" d="M195.146 155.908C212.593 155.908 226.737 142.683 226.737 126.369C226.737 110.055 212.593 96.8298 195.146 96.8298C177.699 96.8298 163.555 110.055 163.555 126.369C163.555 142.683 177.699 155.908 195.146 155.908Z" fill="white"/>
</svg>
