<svg width="492" height="371" viewBox="0 0 492 371" fill="none" xmlns="http://www.w3.org/2000/svg">
<g opacity="0.3">
<path d="M232.721 96.8075C232.967 96.8302 233.205 96.908 233.418 97.035C233.63 97.162 233.811 97.335 233.948 97.5409C234.084 97.7468 234.172 97.9802 234.204 98.2238C234.237 98.4674 234.214 98.7148 234.136 98.9474C207.48 176.759 134.694 241.351 44.464 267.475C44.1999 267.593 43.9181 267.667 43.6294 267.695L42.7621 264.521C42.9862 264.414 43.2289 264.35 43.4775 264.333C132.285 238.613 203.827 175.08 230.149 98.5008C230.301 97.9585 230.644 97.4896 231.116 97.1791C231.588 96.8685 232.157 96.7367 232.721 96.8075Z" fill="#407BFF"/>
<path d="M102.804 204.8C118.107 221.588 88.766 249.086 87.8226 248.667C83.833 250.635 79.7973 252.551 75.6699 254.365C80.0097 250.529 83.1849 238.118 80.0897 221.898C77.7273 205.676 88.9799 188.29 102.804 204.8Z" fill="#407BFF"/>
<path d="M144.113 255.033C158.356 272.083 124.103 281.051 109.206 270.023C94.1138 259.682 81.6459 254.151 75.6671 254.482C79.9267 252.886 84.1023 251.217 88.2537 249.458C88.3235 250.298 129.84 239.39 144.113 255.033Z" fill="#407BFF"/>
<path d="M133.208 182.341C151.731 196.495 128.226 227.175 127.256 226.891C123.728 229.371 120.187 231.918 116.482 234.096C119.956 229.791 120.495 217.191 114.1 202.069C108.432 186.693 116.11 168.16 133.208 182.341Z" fill="#407BFF"/>
<path d="M184.481 225.203C202.077 239.668 169.774 253.249 152.847 244.622C135.814 236.66 122.34 233.074 116.511 234.193C120.371 232.065 124.177 229.855 127.899 227.573C128.097 228.412 167.078 212.025 184.481 225.203Z" fill="#407BFF"/>
<path d="M159.071 156.31C180.348 167.419 162.994 200.5 161.998 200.35C158.996 203.23 155.89 206.074 152.699 208.846C155.283 204.206 153.359 192.036 143.993 178.145C135.263 164.024 139.254 145.071 159.071 156.31Z" fill="#407BFF"/>
<path d="M218.814 190.585C239.276 202.202 209.722 219.903 191.053 213.798C172.475 208.498 158.351 206.864 152.807 208.799C156.216 206.184 159.549 203.525 162.797 200.793C163.146 201.72 198.815 180.311 218.814 190.585Z" fill="#407BFF"/>
<path d="M179.849 127.26C203.279 135.048 192.385 169.761 191.459 169.75C188.994 172.965 186.462 176.166 183.845 179.294C185.477 174.428 181.176 162.881 169.066 150.724C157.501 138.234 157.793 119.142 179.849 127.26Z" fill="#407BFF"/>
<path d="M246.383 152.036C269.125 160.413 243.014 181.954 223.198 178.792C203.629 176.298 189.18 176.755 184.058 179.534C186.941 176.516 189.749 173.454 192.472 170.318C192.897 170.939 224.372 144.931 246.383 152.036Z" fill="#407BFF"/>
<path d="M194.963 95.8478C219.971 100.055 215.815 135.666 214.824 135.768C212.976 139.264 211.061 142.747 209.041 146.194C209.752 141.221 203.212 130.577 188.689 120.445C174.772 109.964 171.374 91.236 194.963 95.8478Z" fill="#407BFF"/>
<path d="M266.468 110.317C290.837 115.177 268.891 140.141 248.477 139.938C228.392 140.349 214.129 142.89 209.386 146.237C211.67 142.899 213.93 139.472 215.995 136.033C216.542 136.748 243.059 106.636 266.468 110.317Z" fill="#407BFF"/>
<path d="M226.143 115.31C226.437 115.804 249.508 88.6261 254.108 71.0565C259.163 53.8744 245.565 47.6164 237.097 50.5696C228.63 53.5228 225.551 65.4612 225.522 75.6155C226.463 88.8311 226.67 102.083 226.143 115.31Z" fill="#407BFF"/>
<path d="M224.805 115.79L224.846 115.937C225.008 116.164 225.232 116.338 225.492 116.439C225.752 116.54 226.036 116.563 226.308 116.505C226.5 116.485 226.685 116.418 226.844 116.31C227.004 116.201 227.134 116.055 227.222 115.884C232.361 111.364 251.375 86.3606 255.316 71.2781C257.847 62.8128 256.114 55.6575 250.581 51.6248C248.566 50.1879 246.24 49.2446 243.795 48.8725C241.349 48.5004 238.853 48.7103 236.513 49.4849C224.828 53.3783 223.981 70.5657 223.961 75.7397C224.873 85.4888 225.116 112.378 224.706 114.959C224.664 115.097 224.651 115.241 224.668 115.384C224.685 115.527 224.732 115.665 224.805 115.79ZM252.765 58.5664C254.203 62.551 254.185 66.9008 252.713 70.8518C249.106 84.7052 234.001 104.305 227.874 111.622C227.948 109.098 227.921 105.268 227.82 98.9524C227.702 91.0561 227.42 80.6975 226.913 75.3449C226.958 65.5982 229.734 54.1828 237.499 51.5727C239.383 50.9768 241.386 50.8317 243.345 51.1492C245.304 51.4667 247.163 52.2379 248.771 53.4002C250.575 54.706 251.963 56.5006 252.765 58.5664Z" fill="#407BFF"/>
<path d="M47.4385 282.292C187.407 288.147 329.287 230.39 418.358 130.707C418.929 130.079 419.701 129.666 420.544 129.537C421.387 129.407 422.251 129.57 422.993 129.997C423.323 130.193 423.605 130.461 423.815 130.781C424.025 131.102 424.16 131.465 424.207 131.844C424.255 132.223 424.215 132.607 424.09 132.966C423.965 133.326 423.759 133.652 423.487 133.919C333.461 234.555 190.452 293.216 48.9965 288.007L47.4385 282.292Z" fill="#407BFF"/>
<path d="M167.775 224.686C177.286 257.378 117.439 283.227 116.444 282.155C109.534 283.038 102.602 283.8 95.6473 284.44C104.275 280.968 117.366 264.158 124.375 238.53C132.371 213.245 160.084 193.167 167.775 224.686Z" fill="#407BFF"/>
<path d="M189.771 320.157C197.708 352.572 143.979 348.495 131.011 324.638C117.336 301.696 103.899 287.324 95.3883 284.671C102.378 284.486 109.343 284.128 116.281 283.596C115.836 284.887 180.985 289.774 189.771 320.157Z" fill="#407BFF"/>
<path d="M225.442 206.667C241.315 237.064 187.314 270.638 186.143 269.74C179.547 271.599 172.888 273.348 166.167 274.986C173.944 270.404 183.461 252.225 185.252 226.33C188.071 200.578 211.533 177.15 225.442 206.667Z" fill="#407BFF"/>
<path d="M266.371 296.281C280.679 326.666 226.601 330.292 209.17 308.922C191.087 288.55 174.933 276.404 166.094 275.136C172.917 273.937 179.703 272.6 186.451 271.124C186.073 272.43 251.417 267.972 266.371 296.281Z" fill="#407BFF"/>
<path d="M279.326 181.045C301.101 208.317 253.973 248.577 252.725 247.858C246.524 250.607 240.247 253.229 233.891 255.723C240.716 250.124 246.53 231.15 243.146 205.709C240.887 180.417 259.471 154.378 279.326 181.045Z" fill="#407BFF"/>
<path d="M337.969 262.201C358.269 289.732 304.997 300.962 283.361 282.681C261.334 265.425 242.882 255.875 233.857 255.925C240.404 253.782 246.874 251.51 253.266 249.11C253.151 250.444 317.437 236.861 337.969 262.201Z" fill="#407BFF"/>
<path d="M328.283 148.412C355.374 171.86 316.102 217.75 314.746 217.218C309.101 220.815 303.36 224.256 297.524 227.544C303.206 221.169 305.258 201.86 296.925 177.669C289.681 153.383 303.359 125.313 328.283 148.412Z" fill="#407BFF"/>
<path d="M403.007 218.898C428.7 242.776 377.526 261.41 352.33 246.721C326.908 233.077 306.591 226.425 297.619 227.733C303.701 224.735 309.706 221.609 315.633 218.355C315.771 219.559 377.426 197.185 403.007 218.898Z" fill="#407BFF"/>
<path d="M371.175 109.385C402.891 128.275 372.343 178.8 370.963 178.529C365.989 182.815 360.915 186.968 355.728 191.057C360.175 184.025 358.474 164.982 345.442 142.578C333.402 120.071 341.707 90.5707 371.175 109.385Z" fill="#407BFF"/>
<path d="M459.919 166.986C490.318 186.555 442.571 212.411 414.41 201.738C386.234 192.182 364.591 188.643 355.868 191.223C361.41 187.411 366.817 183.454 372.088 179.352C372.486 180.807 430.047 149.697 459.919 166.986Z" fill="#407BFF"/>
</g>
</svg>
