<svg width="492" height="372" viewBox="0 0 492 372" fill="none" xmlns="http://www.w3.org/2000/svg">
<g opacity="0.3">
<path d="M259.657 97.5695C259.411 97.5922 259.173 97.6699 258.96 97.797C258.748 97.924 258.566 98.0969 258.43 98.3028C258.294 98.5087 258.206 98.7422 258.174 98.9858C258.141 99.2294 258.164 99.4768 258.242 99.7094C284.898 177.521 357.684 242.113 447.914 268.237C448.178 268.355 448.46 268.429 448.748 268.457L449.616 265.282C449.392 265.175 449.149 265.112 448.9 265.094C360.093 239.375 288.551 175.842 262.229 99.2627C262.077 98.7204 261.734 98.2516 261.262 97.941C260.79 97.6305 260.221 97.4987 259.657 97.5695Z" fill="#407BFF"/>
<path d="M389.574 205.562C374.271 222.35 403.612 249.848 404.555 249.429C408.545 251.397 412.581 253.313 416.708 255.126C412.368 251.291 409.193 238.88 412.288 222.66C414.651 206.438 403.398 189.052 389.574 205.562Z" fill="#407BFF"/>
<path d="M348.265 255.795C334.022 272.845 368.275 281.813 383.172 270.785C398.264 260.444 410.732 254.913 416.711 255.244C412.451 253.648 408.276 251.979 404.124 250.22C404.054 251.06 362.538 240.152 348.265 255.795Z" fill="#407BFF"/>
<path d="M359.17 183.103C340.646 197.257 364.152 227.937 365.122 227.653C368.65 230.133 372.191 232.68 375.896 234.858C372.421 230.553 371.883 217.953 378.278 202.831C383.946 187.455 376.268 168.922 359.17 183.103Z" fill="#407BFF"/>
<path d="M307.896 225.965C290.301 240.43 322.604 254.011 339.531 245.384C356.564 237.421 370.038 233.836 375.867 234.955C372.007 232.827 368.201 230.617 364.479 228.335C364.281 229.174 325.3 212.787 307.896 225.965Z" fill="#407BFF"/>
<path d="M333.307 157.072C312.03 168.181 329.384 201.262 330.38 201.112C333.381 203.992 336.488 206.836 339.679 209.608C337.094 204.968 339.019 192.798 348.385 178.907C357.115 164.786 353.124 145.833 333.307 157.072Z" fill="#407BFF"/>
<path d="M273.564 191.347C253.102 202.964 282.656 220.665 301.325 214.56C319.903 209.26 334.027 207.626 339.571 209.561C336.162 206.946 332.829 204.287 329.581 201.555C329.232 202.482 293.563 181.073 273.564 191.347Z" fill="#407BFF"/>
<path d="M312.529 128.022C289.099 135.81 299.993 170.523 300.919 170.512C303.384 173.727 305.916 176.928 308.532 180.055C306.901 175.19 311.202 163.643 323.312 151.486C334.877 138.996 334.585 119.904 312.529 128.022Z" fill="#407BFF"/>
<path d="M245.995 152.798C223.253 161.175 249.364 182.716 269.18 179.554C288.749 177.06 303.198 177.517 308.32 180.296C305.437 177.278 302.629 174.216 299.906 171.08C299.481 171.701 268.006 145.693 245.995 152.798Z" fill="#407BFF"/>
<path d="M297.415 96.6098C272.407 100.817 276.563 136.428 277.554 136.53C279.402 140.026 281.317 143.509 283.337 146.956C282.626 141.983 289.166 131.339 303.689 121.207C317.606 110.726 321.004 91.998 297.415 96.6098Z" fill="#407BFF"/>
<path d="M225.91 111.079C201.541 115.939 223.487 140.903 243.9 140.7C263.986 141.111 278.249 143.652 282.992 146.999C280.708 143.661 278.447 140.234 276.382 136.795C275.836 137.51 249.319 107.398 225.91 111.079Z" fill="#407BFF"/>
<path d="M266.235 116.072C265.941 116.566 242.87 89.388 238.27 71.8185C233.215 54.6364 246.813 48.3784 255.28 51.3316C263.748 54.2848 266.827 66.2231 266.856 76.3774C265.915 89.593 265.708 102.845 266.235 116.072Z" fill="#407BFF"/>
<path d="M267.573 116.551L267.532 116.699C267.37 116.926 267.146 117.1 266.886 117.201C266.626 117.302 266.342 117.325 266.07 117.267C265.877 117.247 265.693 117.18 265.534 117.072C265.374 116.963 265.244 116.817 265.156 116.646C260.017 112.125 241.003 87.1226 237.062 72.04C234.531 63.5747 236.264 56.4194 241.797 52.3868C243.811 50.9499 246.138 50.0065 248.583 49.6345C251.029 49.2624 253.525 49.4723 255.864 50.2468C267.549 54.1403 268.397 71.3277 268.417 76.5017C267.505 86.2508 267.262 113.14 267.672 115.721C267.714 115.859 267.727 116.003 267.71 116.146C267.693 116.289 267.646 116.427 267.573 116.551ZM239.613 59.3283C238.175 63.313 238.193 67.6627 239.665 71.6137C243.272 85.4672 258.377 105.067 264.504 112.384C264.43 109.86 264.457 106.03 264.558 99.7144C264.676 91.8181 264.958 81.4595 265.465 76.1068C265.42 66.3601 262.644 54.9448 254.879 52.3347C252.995 51.7387 250.991 51.5936 249.033 51.9111C247.074 52.2287 245.215 52.9999 243.607 54.1621C241.803 55.4679 240.415 57.2625 239.613 59.3283Z" fill="#407BFF"/>
<path d="M444.939 283.054C304.971 288.909 163.091 231.152 74.0197 131.469C73.4486 130.841 72.6772 130.428 71.834 130.299C70.9908 130.169 70.1265 130.332 69.3845 130.759C69.0545 130.955 68.7734 131.223 68.5629 131.543C68.3525 131.864 68.2183 132.227 68.1706 132.606C68.1229 132.985 68.1631 133.369 68.288 133.728C68.4129 134.088 68.6192 134.414 68.891 134.681C158.917 235.317 301.926 293.978 443.381 288.769L444.939 283.054Z" fill="#407BFF"/>
<path d="M324.603 225.448C315.092 258.14 374.939 283.989 375.934 282.917C382.844 283.8 389.776 284.562 396.731 285.202C388.103 281.729 375.012 264.92 368.003 239.292C360.007 214.007 332.294 193.929 324.603 225.448Z" fill="#407BFF"/>
<path d="M302.607 320.919C294.67 353.334 348.399 349.257 361.367 325.4C375.041 302.458 388.479 288.086 396.99 285.433C389.999 285.248 383.035 284.89 376.097 284.358C376.542 285.649 311.392 290.536 302.607 320.919Z" fill="#407BFF"/>
<path d="M266.936 207.428C251.063 237.826 305.064 271.4 306.235 270.502C312.831 272.361 319.49 274.11 326.211 275.748C318.434 271.166 308.917 252.987 307.126 227.092C304.307 201.34 280.845 177.912 266.936 207.428Z" fill="#407BFF"/>
<path d="M226.007 297.043C211.699 327.428 265.777 331.054 283.208 309.684C301.291 289.311 317.445 277.166 326.284 275.898C319.46 274.699 312.675 273.362 305.927 271.886C306.305 273.192 240.96 268.734 226.007 297.043Z" fill="#407BFF"/>
<path d="M213.052 181.807C191.277 209.079 238.404 249.339 239.653 248.62C245.854 251.369 252.131 253.991 258.487 256.484C251.662 250.886 245.848 231.912 249.232 206.471C251.49 181.179 232.907 155.14 213.052 181.807Z" fill="#407BFF"/>
<path d="M154.409 262.963C134.109 290.494 187.381 301.724 209.017 283.443C231.044 266.187 249.496 256.637 258.521 256.687C251.973 254.544 245.504 252.272 239.112 249.872C239.227 251.205 174.941 237.622 154.409 262.963Z" fill="#407BFF"/>
<path d="M164.095 149.174C137.004 172.622 176.276 218.512 177.632 217.98C183.277 221.577 189.018 225.018 194.854 228.306C189.172 221.93 187.12 202.622 195.453 178.431C202.697 154.145 189.019 126.075 164.095 149.174Z" fill="#407BFF"/>
<path d="M89.3711 219.66C63.6776 243.538 114.852 262.172 140.048 247.483C165.47 233.839 185.787 227.187 194.759 228.495C188.677 225.497 182.672 222.371 176.745 219.117C176.607 220.321 114.952 197.947 89.3711 219.66Z" fill="#407BFF"/>
<path d="M121.203 110.147C89.4866 129.037 120.035 179.562 121.415 179.291C126.389 183.577 131.463 187.73 136.65 191.819C132.203 184.787 133.904 165.744 146.936 143.34C158.976 120.833 150.67 91.3326 121.203 110.147Z" fill="#407BFF"/>
<path d="M32.4591 167.748C2.06014 187.317 49.8067 213.173 77.9681 202.5C106.144 192.944 127.787 189.405 136.51 191.985C130.968 188.173 125.561 184.216 120.29 180.114C119.892 181.569 62.3313 150.459 32.4591 167.748Z" fill="#407BFF"/>
</g>
</svg>
