<svg width="492" height="371" viewBox="0 0 492 371" fill="none" xmlns="http://www.w3.org/2000/svg">
<g opacity="0.3">
<path d="M232.721 96.6907C232.967 96.7134 233.205 96.7912 233.418 96.9182C233.63 97.0452 233.811 97.2181 233.948 97.424C234.084 97.6299 234.172 97.8634 234.204 98.107C234.237 98.3506 234.214 98.598 234.136 98.8306C207.48 176.642 134.694 241.234 44.464 267.359C44.1999 267.476 43.9181 267.55 43.6294 267.578L42.7621 264.404C42.9862 264.297 43.2289 264.233 43.4775 264.216C132.285 238.497 203.827 174.963 230.149 98.3839C230.301 97.8416 230.644 97.3728 231.116 97.0622C231.588 96.7517 232.157 96.6199 232.721 96.6907Z" fill="#407BFF"/>
<path d="M102.804 204.683C118.107 221.472 88.766 248.969 87.8226 248.551C83.833 250.518 79.7973 252.434 75.6699 254.248C80.0097 250.412 83.1849 238.001 80.0897 221.781C77.7273 205.56 88.9799 188.173 102.804 204.683Z" fill="#407BFF"/>
<path d="M144.113 254.916C158.356 271.967 124.103 280.935 109.206 269.906C94.1138 259.565 81.6459 254.034 75.6671 254.365C79.9267 252.769 84.1023 251.1 88.2537 249.341C88.3235 250.182 129.84 239.273 144.113 254.916Z" fill="#407BFF"/>
<path d="M133.208 182.224C151.731 196.379 128.226 227.058 127.256 226.774C123.728 229.254 120.187 231.801 116.482 233.979C119.956 229.674 120.495 217.074 114.1 201.952C108.432 186.576 116.11 168.043 133.208 182.224Z" fill="#407BFF"/>
<path d="M184.481 225.087C202.077 239.551 169.774 253.132 152.847 244.505C135.814 236.543 122.34 232.958 116.511 234.076C120.371 231.948 124.177 229.739 127.899 227.456C128.097 228.295 167.078 211.908 184.481 225.087Z" fill="#407BFF"/>
<path d="M159.071 156.193C180.348 167.303 162.994 200.383 161.998 200.233C158.996 203.113 155.89 205.958 152.699 208.729C155.283 204.089 153.359 191.919 143.993 178.029C135.263 163.907 139.254 144.954 159.071 156.193Z" fill="#407BFF"/>
<path d="M218.814 190.468C239.276 202.085 209.722 219.786 191.053 213.682C172.475 208.381 158.351 206.747 152.807 208.682C156.216 206.067 159.549 203.409 162.797 200.677C163.146 201.604 198.815 180.194 218.814 190.468Z" fill="#407BFF"/>
<path d="M179.849 127.143C203.279 134.931 192.385 169.644 191.459 169.634C188.994 172.848 186.462 176.049 183.845 179.177C185.477 174.311 181.176 162.764 169.066 150.608C157.501 138.117 157.793 119.025 179.849 127.143Z" fill="#407BFF"/>
<path d="M246.383 151.919C269.125 160.296 243.014 181.837 223.198 178.675C203.629 176.181 189.18 176.638 184.058 179.417C186.941 176.399 189.749 173.337 192.472 170.201C192.897 170.822 224.372 144.815 246.383 151.919Z" fill="#407BFF"/>
<path d="M194.963 95.7311C219.971 99.9385 215.815 135.549 214.824 135.651C212.976 139.148 211.061 142.63 209.041 146.077C209.752 141.104 203.212 130.46 188.689 120.328C174.772 109.847 171.374 91.1193 194.963 95.7311Z" fill="#407BFF"/>
<path d="M266.468 110.2C290.837 115.061 268.891 140.024 248.477 139.821C228.392 140.232 214.129 142.773 209.386 146.121C211.67 142.783 213.93 139.356 215.995 135.916C216.542 136.632 243.059 106.52 266.468 110.2Z" fill="#407BFF"/>
<path d="M226.143 115.193C226.437 115.687 249.508 88.5092 254.108 70.9397C259.163 53.7576 245.565 47.4996 237.097 50.4528C228.63 53.406 225.551 65.3443 225.522 75.4986C226.463 88.7143 226.67 101.966 226.143 115.193Z" fill="#407BFF"/>
<path d="M224.805 115.673L224.846 115.821C225.008 116.047 225.232 116.221 225.492 116.322C225.752 116.423 226.036 116.446 226.308 116.388C226.5 116.368 226.685 116.301 226.844 116.193C227.004 116.085 227.134 115.938 227.222 115.768C232.361 111.247 251.375 86.2439 255.316 71.1614C257.847 62.6961 256.114 55.5408 250.581 51.5081C248.566 50.0712 246.24 49.1279 243.795 48.7558C241.349 48.3837 238.853 48.5936 236.513 49.3682C224.828 53.2616 223.981 70.449 223.961 75.623C224.873 85.3721 225.116 112.262 224.706 114.843C224.664 114.98 224.651 115.125 224.668 115.268C224.685 115.41 224.732 115.548 224.805 115.673ZM252.765 58.4497C254.203 62.4343 254.185 66.7841 252.713 70.7351C249.106 84.5885 234.001 104.189 227.874 111.506C227.948 108.981 227.921 105.151 227.82 98.8357C227.702 90.9394 227.42 80.5808 226.913 75.2282C226.958 65.4815 229.734 54.0661 237.499 51.456C239.383 50.8601 241.386 50.715 243.345 51.0325C245.304 51.35 247.163 52.1212 248.771 53.2835C250.575 54.5893 251.963 56.3839 252.765 58.4497Z" fill="#407BFF"/>
<path d="M47.4385 282.175C187.407 288.03 329.287 230.273 418.358 130.59C418.929 129.962 419.701 129.549 420.544 129.42C421.387 129.291 422.251 129.453 422.993 129.88C423.323 130.076 423.605 130.344 423.815 130.665C424.025 130.985 424.16 131.348 424.207 131.727C424.255 132.106 424.215 132.49 424.09 132.85C423.965 133.209 423.759 133.535 423.487 133.802C333.461 234.438 190.452 293.099 48.9965 287.891L47.4385 282.175Z" fill="#407BFF"/>
<path d="M167.775 224.569C177.286 257.261 117.439 283.11 116.444 282.038C109.534 282.921 102.602 283.683 95.6473 284.324C104.275 280.851 117.366 264.042 124.375 238.413C132.371 213.128 160.084 193.051 167.775 224.569Z" fill="#407BFF"/>
<path d="M189.771 320.04C197.708 352.455 143.979 348.379 131.011 324.521C117.336 301.579 103.899 287.207 95.3883 284.554C102.378 284.369 109.343 284.011 116.281 283.48C115.836 284.771 180.985 289.657 189.771 320.04Z" fill="#407BFF"/>
<path d="M225.442 206.55C241.315 236.947 187.314 270.522 186.143 269.623C179.547 271.482 172.888 273.231 166.167 274.869C173.944 270.287 183.461 252.108 185.252 226.214C188.071 200.462 211.533 177.033 225.442 206.55Z" fill="#407BFF"/>
<path d="M266.371 296.165C280.679 326.549 226.601 330.176 209.17 308.806C191.087 288.433 174.933 276.287 166.094 275.02C172.917 273.82 179.703 272.483 186.451 271.007C186.073 272.313 251.417 267.856 266.371 296.165Z" fill="#407BFF"/>
<path d="M279.326 180.928C301.101 208.201 253.973 248.461 252.725 247.742C246.524 250.491 240.247 253.112 233.891 255.606C240.716 250.007 246.53 231.033 243.146 205.592C240.887 180.301 259.471 154.262 279.326 180.928Z" fill="#407BFF"/>
<path d="M337.969 262.084C358.269 289.616 304.997 300.845 283.361 282.565C261.334 265.308 242.882 255.758 233.857 255.809C240.404 253.665 246.874 251.393 253.266 248.994C253.151 250.327 317.437 236.744 337.969 262.084Z" fill="#407BFF"/>
<path d="M328.283 148.295C355.374 171.744 316.102 217.633 314.746 217.101C309.101 220.698 303.36 224.14 297.524 227.427C303.206 221.052 305.258 201.743 296.925 177.552C289.681 153.266 303.359 125.196 328.283 148.295Z" fill="#407BFF"/>
<path d="M403.007 218.781C428.7 242.659 377.526 261.293 352.33 246.604C326.908 232.96 306.591 226.308 297.619 227.617C303.701 224.618 309.706 221.492 315.633 218.238C315.771 219.443 377.426 197.068 403.007 218.781Z" fill="#407BFF"/>
<path d="M371.175 109.269C402.891 128.158 372.343 178.683 370.963 178.412C365.989 182.698 360.915 186.852 355.728 190.94C360.175 183.909 358.474 164.865 345.442 142.461C333.402 119.954 341.707 90.454 371.175 109.269Z" fill="#407BFF"/>
<path d="M459.919 166.869C490.318 186.439 442.571 212.295 414.41 201.621C386.234 192.066 364.591 188.526 355.868 191.106C361.41 187.294 366.817 183.337 372.088 179.235C372.486 180.69 430.047 149.581 459.919 166.869Z" fill="#407BFF"/>
</g>
</svg>
